M48
; DRILL file {KiCad 9.0.1} date 2025-05-09T00:25:48+0200
; FORMAT={-:-/ absolute / metric / decimal}
; #@! TF.CreationDate,2025-05-09T00:25:48+02:00
; #@! TF.GenerationSoftware,Kicad,Pcbnew,9.0.1
; #@! TF.FileFunction,Plated,1,2,PTH
FMAT,2
METRIC
; #@! TA.AperFunction,Plated,PTH,ComponentDrill
T1C0.991
; #@! TA.AperFunction,Plated,PTH,ComponentDrill
T2C1.092
%
G90
G05
T1
X96.19Y-67.0
X96.19Y-86.0
X96.19Y-105.0
X103.81Y-67.0
X103.81Y-86.0
X103.81Y-105.0
X115.19Y-48.0
X115.19Y-67.0
X115.19Y-86.0
X122.81Y-48.0
X122.81Y-67.0
X122.81Y-86.0
X134.19Y-48.0
X134.19Y-67.0
X134.19Y-86.0
X141.81Y-48.0
X141.81Y-67.0
X141.81Y-86.0
X153.19Y-48.0
X153.19Y-67.0
X153.19Y-86.0
X160.81Y-48.0
X160.81Y-67.0
X160.81Y-86.0
X172.19Y-48.0
X172.19Y-67.0
X172.19Y-86.0
X172.19Y-105.0
X179.81Y-48.0
X179.81Y-67.0
X179.81Y-86.0
X179.81Y-105.0
X191.19Y-105.0
X198.81Y-105.0
X229.19Y-105.0
X236.81Y-105.0
X248.19Y-48.0
X248.19Y-67.0
X248.19Y-86.0
X248.19Y-105.0
X255.81Y-48.0
X255.81Y-67.0
X255.81Y-86.0
X255.81Y-105.0
X267.19Y-48.0
X267.19Y-67.0
X267.19Y-86.0
X274.81Y-48.0
X274.81Y-67.0
X274.81Y-86.0
X286.19Y-48.0
X286.19Y-67.0
X286.19Y-86.0
X293.81Y-48.0
X293.81Y-67.0
X293.81Y-86.0
X305.19Y-48.0
X305.19Y-67.0
X305.19Y-86.0
X312.81Y-48.0
X312.81Y-67.0
X312.81Y-86.0
X324.19Y-67.0
X324.19Y-86.0
X324.19Y-105.0
X331.81Y-67.0
X331.81Y-86.0
X331.81Y-105.0
T2
X206.38Y-51.43
X206.38Y-53.97
X206.38Y-56.51
X206.38Y-59.05
X206.38Y-61.59
X206.38Y-64.13
X206.38Y-66.67
X206.38Y-69.21
X206.38Y-71.75
X206.38Y-74.29
X206.38Y-76.83
X206.38Y-79.37
X221.62Y-51.43
X221.62Y-53.97
X221.62Y-56.51
X221.62Y-59.05
X221.62Y-61.59
X221.62Y-64.13
X221.62Y-66.67
X221.62Y-69.21
X221.62Y-71.75
X221.62Y-74.29
X221.62Y-76.83
X221.62Y-79.37
M30
