%TF.GenerationSoftware,KiCad,Pcbnew,9.0.1*%
%TF.CreationDate,2025-05-09T00:25:46+02:00*%
%TF.ProjectId,cmrk,636d726b-2e6b-4696-9361-645f70636258,v1.0.0*%
%TF.SameCoordinates,Original*%
%TF.FileFunction,Copper,L1,Top*%
%TF.FilePolarity,Positive*%
%FSLAX46Y46*%
G04 Gerber Fmt 4.6, Leading zero omitted, Abs format (unit mm)*
G04 Created by KiCad (PCBNEW 9.0.1) date 2025-05-09 00:25:46*
%MOMM*%
%LPD*%
G01*
G04 APERTURE LIST*
%TA.AperFunction,ComponentPad*%
%ADD10R,1.778000X1.778000*%
%TD*%
%TA.AperFunction,SMDPad,CuDef*%
%ADD11R,0.900000X1.200000*%
%TD*%
%TA.AperFunction,ComponentPad*%
%ADD12C,1.905000*%
%TD*%
%TA.AperFunction,ComponentPad*%
%ADD13R,1.752600X1.752600*%
%TD*%
%TA.AperFunction,ComponentPad*%
%ADD14C,1.752600*%
%TD*%
%TA.AperFunction,Conductor*%
%ADD15C,0.250000*%
%TD*%
G04 APERTURE END LIST*
D10*
%TO.P,D22,1*%
%TO.N,P0*%
X305190000Y-67000000D03*
D11*
X307350000Y-67000000D03*
%TO.P,D22,2*%
%TO.N,mirror_ring_home*%
X310650000Y-67000000D03*
D12*
X312810000Y-67000000D03*
%TD*%
D10*
%TO.P,D10,1*%
%TO.N,P19*%
X153190000Y-86000000D03*
D11*
X155350000Y-86000000D03*
%TO.P,D10,2*%
%TO.N,index_bottom*%
X158650000Y-86000000D03*
D12*
X160810000Y-86000000D03*
%TD*%
D10*
%TO.P,D24,1*%
%TO.N,P4*%
X286190000Y-86000000D03*
D11*
X288350000Y-86000000D03*
%TO.P,D24,2*%
%TO.N,mirror_middle_bottom*%
X291650000Y-86000000D03*
D12*
X293810000Y-86000000D03*
%TD*%
D10*
%TO.P,D9,1*%
%TO.N,P21*%
X134190000Y-48000000D03*
D11*
X136350000Y-48000000D03*
%TO.P,D9,2*%
%TO.N,middle_top*%
X139650000Y-48000000D03*
D12*
X141810000Y-48000000D03*
%TD*%
D10*
%TO.P,D20,1*%
%TO.N,P1*%
X324190000Y-67000000D03*
D11*
X326350000Y-67000000D03*
%TO.P,D20,2*%
%TO.N,mirror_pinky_top*%
X329650000Y-67000000D03*
D12*
X331810000Y-67000000D03*
%TD*%
D10*
%TO.P,D33,1*%
%TO.N,P5*%
X248190000Y-105000000D03*
D11*
X250350000Y-105000000D03*
%TO.P,D33,2*%
%TO.N,mirror_tucky_cluster*%
X253650000Y-105000000D03*
D12*
X255810000Y-105000000D03*
%TD*%
D10*
%TO.P,D29,1*%
%TO.N,P1*%
X267190000Y-48000000D03*
D11*
X269350000Y-48000000D03*
%TO.P,D29,2*%
%TO.N,mirror_index_top*%
X272650000Y-48000000D03*
D12*
X274810000Y-48000000D03*
%TD*%
D10*
%TO.P,D18,1*%
%TO.N,P4*%
X324190000Y-105000000D03*
D11*
X326350000Y-105000000D03*
%TO.P,D18,2*%
%TO.N,mirror_pinky_bottom*%
X329650000Y-105000000D03*
D12*
X331810000Y-105000000D03*
%TD*%
D10*
%TO.P,D23,1*%
%TO.N,P1*%
X305190000Y-48000000D03*
D11*
X307350000Y-48000000D03*
%TO.P,D23,2*%
%TO.N,mirror_ring_top*%
X310650000Y-48000000D03*
D12*
X312810000Y-48000000D03*
%TD*%
D10*
%TO.P,D5,1*%
%TO.N,P20*%
X115190000Y-67000000D03*
D11*
X117350000Y-67000000D03*
%TO.P,D5,2*%
%TO.N,ring_home*%
X120650000Y-67000000D03*
D12*
X122810000Y-67000000D03*
%TD*%
D10*
%TO.P,D26,1*%
%TO.N,P1*%
X286190000Y-48000000D03*
D11*
X288350000Y-48000000D03*
%TO.P,D26,2*%
%TO.N,mirror_middle_top*%
X291650000Y-48000000D03*
D12*
X293810000Y-48000000D03*
%TD*%
D10*
%TO.P,D31,1*%
%TO.N,P0*%
X248190000Y-67000000D03*
D11*
X250350000Y-67000000D03*
%TO.P,D31,2*%
%TO.N,mirror_inner_home*%
X253650000Y-67000000D03*
D12*
X255810000Y-67000000D03*
%TD*%
D10*
%TO.P,D17,1*%
%TO.N,P18*%
X191190000Y-105000000D03*
D11*
X193350000Y-105000000D03*
%TO.P,D17,2*%
%TO.N,reachy_cluster*%
X196650000Y-105000000D03*
D12*
X198810000Y-105000000D03*
%TD*%
D10*
%TO.P,D14,1*%
%TO.N,P20*%
X172190000Y-67000000D03*
D11*
X174350000Y-67000000D03*
%TO.P,D14,2*%
%TO.N,inner_home*%
X177650000Y-67000000D03*
D12*
X179810000Y-67000000D03*
%TD*%
D10*
%TO.P,D19,1*%
%TO.N,P0*%
X324190000Y-86000000D03*
D11*
X326350000Y-86000000D03*
%TO.P,D19,2*%
%TO.N,mirror_pinky_home*%
X329650000Y-86000000D03*
D12*
X331810000Y-86000000D03*
%TD*%
D10*
%TO.P,D28,1*%
%TO.N,P0*%
X267190000Y-67000000D03*
D11*
X269350000Y-67000000D03*
%TO.P,D28,2*%
%TO.N,mirror_index_home*%
X272650000Y-67000000D03*
D12*
X274810000Y-67000000D03*
%TD*%
D10*
%TO.P,D34,1*%
%TO.N,P5*%
X229190000Y-105000000D03*
D11*
X231350000Y-105000000D03*
%TO.P,D34,2*%
%TO.N,mirror_reachy_cluster*%
X234650000Y-105000000D03*
D12*
X236810000Y-105000000D03*
%TD*%
D10*
%TO.P,D27,1*%
%TO.N,P4*%
X267190000Y-86000000D03*
D11*
X269350000Y-86000000D03*
%TO.P,D27,2*%
%TO.N,mirror_index_bottom*%
X272650000Y-86000000D03*
D12*
X274810000Y-86000000D03*
%TD*%
D10*
%TO.P,D6,1*%
%TO.N,P21*%
X115190000Y-48000000D03*
D11*
X117350000Y-48000000D03*
%TO.P,D6,2*%
%TO.N,ring_top*%
X120650000Y-48000000D03*
D12*
X122810000Y-48000000D03*
%TD*%
D10*
%TO.P,D8,1*%
%TO.N,P20*%
X134190000Y-67000000D03*
D11*
X136350000Y-67000000D03*
%TO.P,D8,2*%
%TO.N,middle_home*%
X139650000Y-67000000D03*
D12*
X141810000Y-67000000D03*
%TD*%
D10*
%TO.P,D30,1*%
%TO.N,P4*%
X248190000Y-86000000D03*
D11*
X250350000Y-86000000D03*
%TO.P,D30,2*%
%TO.N,mirror_inner_bottom*%
X253650000Y-86000000D03*
D12*
X255810000Y-86000000D03*
%TD*%
D10*
%TO.P,D11,1*%
%TO.N,P20*%
X153190000Y-67000000D03*
D11*
X155350000Y-67000000D03*
%TO.P,D11,2*%
%TO.N,index_home*%
X158650000Y-67000000D03*
D12*
X160810000Y-67000000D03*
%TD*%
D10*
%TO.P,D7,1*%
%TO.N,P19*%
X134190000Y-86000000D03*
D11*
X136350000Y-86000000D03*
%TO.P,D7,2*%
%TO.N,middle_bottom*%
X139650000Y-86000000D03*
D12*
X141810000Y-86000000D03*
%TD*%
D10*
%TO.P,D25,1*%
%TO.N,P0*%
X286190000Y-67000000D03*
D11*
X288350000Y-67000000D03*
%TO.P,D25,2*%
%TO.N,mirror_middle_home*%
X291650000Y-67000000D03*
D12*
X293810000Y-67000000D03*
%TD*%
D10*
%TO.P,D32,1*%
%TO.N,P1*%
X248190000Y-48000000D03*
D11*
X250350000Y-48000000D03*
%TO.P,D32,2*%
%TO.N,mirror_inner_top*%
X253650000Y-48000000D03*
D12*
X255810000Y-48000000D03*
%TD*%
D13*
%TO.P,MCU1,1*%
%TO.N,RAW*%
X206380000Y-51430000D03*
D14*
%TO.P,MCU1,2*%
%TO.N,GND*%
X206380000Y-53970000D03*
%TO.P,MCU1,3*%
%TO.N,RST*%
X206380000Y-56510000D03*
%TO.P,MCU1,4*%
%TO.N,VCC*%
X206380000Y-59050000D03*
%TO.P,MCU1,5*%
%TO.N,P21*%
X206380000Y-61590000D03*
%TO.P,MCU1,6*%
%TO.N,P20*%
X206380000Y-64130000D03*
%TO.P,MCU1,7*%
%TO.N,P19*%
X206380000Y-66670000D03*
%TO.P,MCU1,8*%
%TO.N,P18*%
X206380000Y-69210000D03*
%TO.P,MCU1,9*%
%TO.N,P15*%
X206380000Y-71750000D03*
%TO.P,MCU1,10*%
%TO.N,P14*%
X206380000Y-74290000D03*
%TO.P,MCU1,11*%
%TO.N,P16*%
X206380000Y-76830000D03*
%TO.P,MCU1,12*%
%TO.N,P10*%
X206380000Y-79370000D03*
%TO.P,MCU1,13*%
%TO.N,P1*%
X221620000Y-51430000D03*
%TO.P,MCU1,14*%
%TO.N,P0*%
X221620000Y-53970000D03*
%TO.P,MCU1,15*%
%TO.N,GND*%
X221620000Y-56510000D03*
%TO.P,MCU1,16*%
X221620000Y-59050000D03*
%TO.P,MCU1,17*%
%TO.N,P2*%
X221620000Y-61590000D03*
%TO.P,MCU1,18*%
%TO.N,P3*%
X221620000Y-64130000D03*
%TO.P,MCU1,19*%
%TO.N,P4*%
X221620000Y-66670000D03*
%TO.P,MCU1,20*%
%TO.N,P5*%
X221620000Y-69210000D03*
%TO.P,MCU1,21*%
%TO.N,P6*%
X221620000Y-71750000D03*
%TO.P,MCU1,22*%
%TO.N,P7*%
X221620000Y-74290000D03*
%TO.P,MCU1,23*%
%TO.N,P8*%
X221620000Y-76830000D03*
%TO.P,MCU1,24*%
%TO.N,P9*%
X221620000Y-79370000D03*
%TD*%
D10*
%TO.P,D1,1*%
%TO.N,P19*%
X96190000Y-105000000D03*
D11*
X98350000Y-105000000D03*
%TO.P,D1,2*%
%TO.N,pinky_bottom*%
X101650000Y-105000000D03*
D12*
X103810000Y-105000000D03*
%TD*%
D10*
%TO.P,D21,1*%
%TO.N,P4*%
X305190000Y-86000000D03*
D11*
X307350000Y-86000000D03*
%TO.P,D21,2*%
%TO.N,mirror_ring_bottom*%
X310650000Y-86000000D03*
D12*
X312810000Y-86000000D03*
%TD*%
D10*
%TO.P,D13,1*%
%TO.N,P19*%
X172190000Y-86000000D03*
D11*
X174350000Y-86000000D03*
%TO.P,D13,2*%
%TO.N,inner_bottom*%
X177650000Y-86000000D03*
D12*
X179810000Y-86000000D03*
%TD*%
D10*
%TO.P,D3,1*%
%TO.N,P21*%
X96190000Y-67000000D03*
D11*
X98350000Y-67000000D03*
%TO.P,D3,2*%
%TO.N,pinky_top*%
X101650000Y-67000000D03*
D12*
X103810000Y-67000000D03*
%TD*%
D10*
%TO.P,D16,1*%
%TO.N,P18*%
X172190000Y-105000000D03*
D11*
X174350000Y-105000000D03*
%TO.P,D16,2*%
%TO.N,tucky_cluster*%
X177650000Y-105000000D03*
D12*
X179810000Y-105000000D03*
%TD*%
D10*
%TO.P,D12,1*%
%TO.N,P21*%
X153190000Y-48000000D03*
D11*
X155350000Y-48000000D03*
%TO.P,D12,2*%
%TO.N,index_top*%
X158650000Y-48000000D03*
D12*
X160810000Y-48000000D03*
%TD*%
D10*
%TO.P,D15,1*%
%TO.N,P21*%
X172190000Y-48000000D03*
D11*
X174350000Y-48000000D03*
%TO.P,D15,2*%
%TO.N,inner_top*%
X177650000Y-48000000D03*
D12*
X179810000Y-48000000D03*
%TD*%
D10*
%TO.P,D2,1*%
%TO.N,P20*%
X96190000Y-86000000D03*
D11*
X98350000Y-86000000D03*
%TO.P,D2,2*%
%TO.N,pinky_home*%
X101650000Y-86000000D03*
D12*
X103810000Y-86000000D03*
%TD*%
D10*
%TO.P,D4,1*%
%TO.N,P19*%
X115190000Y-86000000D03*
D11*
X117350000Y-86000000D03*
%TO.P,D4,2*%
%TO.N,ring_bottom*%
X120650000Y-86000000D03*
D12*
X122810000Y-86000000D03*
%TD*%
D15*
%TO.N,P19*%
X136350000Y-86000000D02*
X134190000Y-86000000D01*
X153190000Y-86000000D02*
X152500000Y-86000000D01*
X119350000Y-88000000D02*
X117350000Y-86000000D01*
X133000000Y-86000000D02*
X131000000Y-88000000D01*
X172190000Y-86000000D02*
X172000000Y-86000000D01*
X117350000Y-86000000D02*
X115190000Y-86000000D01*
X180721500Y-84721500D02*
X175628500Y-84721500D01*
X172000000Y-86000000D02*
X170000000Y-88000000D01*
X109500000Y-103000000D02*
X100350000Y-103000000D01*
X98350000Y-105000000D02*
X96190000Y-105000000D01*
X115190000Y-86000000D02*
X109500000Y-86000000D01*
X150500000Y-88000000D02*
X138350000Y-88000000D01*
X157000000Y-88000000D02*
X155350000Y-86350000D01*
X206380000Y-66670000D02*
X205330000Y-66670000D01*
X205330000Y-66670000D02*
X204500000Y-67500000D01*
X174350000Y-86000000D02*
X172190000Y-86000000D01*
X204049000Y-70951000D02*
X204000000Y-71000000D01*
X204000000Y-86000000D02*
X182000000Y-86000000D01*
X131000000Y-88000000D02*
X119350000Y-88000000D01*
X175628500Y-84721500D02*
X174350000Y-86000000D01*
X204500000Y-67500000D02*
X204500000Y-70452190D01*
X155350000Y-86000000D02*
X153190000Y-86000000D01*
X182000000Y-86000000D02*
X180721500Y-84721500D01*
X204500000Y-70452190D02*
X204049000Y-70903190D01*
X100350000Y-103000000D02*
X98350000Y-105000000D01*
X109500000Y-86000000D02*
X109500000Y-103000000D01*
X204000000Y-71000000D02*
X204000000Y-86000000D01*
X155350000Y-86350000D02*
X155350000Y-86000000D01*
X134190000Y-86000000D02*
X133000000Y-86000000D01*
X138350000Y-88000000D02*
X136350000Y-86000000D01*
X204049000Y-70903190D02*
X204049000Y-70951000D01*
X170000000Y-88000000D02*
X157000000Y-88000000D01*
X152500000Y-86000000D02*
X150500000Y-88000000D01*
%TO.N,P20*%
X204500000Y-66010000D02*
X204500000Y-66500000D01*
X170000000Y-69000000D02*
X157350000Y-69000000D01*
X204500000Y-66500000D02*
X204000000Y-67000000D01*
X150500000Y-69000000D02*
X138350000Y-69000000D01*
X204000000Y-70000000D02*
X203500000Y-70500000D01*
X157350000Y-69000000D02*
X155350000Y-67000000D01*
X167770500Y-84270500D02*
X167000000Y-83500000D01*
X134190000Y-67000000D02*
X134000000Y-67000000D01*
X115190000Y-67000000D02*
X114500000Y-67000000D01*
X155350000Y-67000000D02*
X153190000Y-67000000D01*
X172000000Y-67000000D02*
X170000000Y-69000000D01*
X153190000Y-67000000D02*
X152500000Y-67000000D01*
X134000000Y-67000000D02*
X132000000Y-69000000D01*
X167000000Y-83500000D02*
X167000000Y-77000000D01*
X174350000Y-67000000D02*
X172190000Y-67000000D01*
X174350000Y-69650000D02*
X174350000Y-67000000D01*
X167000000Y-77000000D02*
X174350000Y-69650000D01*
X206380000Y-64130000D02*
X204500000Y-66010000D01*
X114500000Y-67000000D02*
X109500000Y-72000000D01*
X109500000Y-72000000D02*
X109500000Y-84500000D01*
X132000000Y-69000000D02*
X119350000Y-69000000D01*
X117350000Y-67000000D02*
X115190000Y-67000000D01*
X138350000Y-69000000D02*
X136350000Y-67000000D01*
X204000000Y-67000000D02*
X204000000Y-70000000D01*
X152500000Y-67000000D02*
X150500000Y-69000000D01*
X203500000Y-85549000D02*
X182186810Y-85549000D01*
X119350000Y-69000000D02*
X117350000Y-67000000D01*
X182186810Y-85549000D02*
X180908310Y-84270500D01*
X98350000Y-86000000D02*
X96190000Y-86000000D01*
X172190000Y-67000000D02*
X172000000Y-67000000D01*
X99850000Y-84500000D02*
X98350000Y-86000000D01*
X136350000Y-67000000D02*
X134190000Y-67000000D01*
X109500000Y-84500000D02*
X99850000Y-84500000D01*
X203500000Y-70500000D02*
X203500000Y-85549000D01*
X180908310Y-84270500D02*
X167770500Y-84270500D01*
%TO.N,P21*%
X172190000Y-48000000D02*
X170190000Y-50000000D01*
X203931095Y-65568905D02*
X204500000Y-65000000D01*
X184000000Y-85000000D02*
X203000000Y-85000000D01*
X98350000Y-67000000D02*
X96190000Y-67000000D01*
X203000000Y-70362190D02*
X203500000Y-69862190D01*
X134190000Y-48000000D02*
X134000000Y-48000000D01*
X174350000Y-48000000D02*
X172190000Y-48000000D01*
X151190000Y-50000000D02*
X138350000Y-50000000D01*
X204500000Y-63470000D02*
X206380000Y-61590000D01*
X119350000Y-50000000D02*
X117350000Y-48000000D01*
X203000000Y-85000000D02*
X203000000Y-70362190D01*
X172190000Y-48000000D02*
X176690000Y-52500000D01*
X100350000Y-65000000D02*
X98350000Y-67000000D01*
X176690000Y-52500000D02*
X184000000Y-52500000D01*
X204500000Y-65000000D02*
X204500000Y-63470000D01*
X109500000Y-54500000D02*
X109500000Y-65000000D01*
X203931095Y-66431095D02*
X203931095Y-65568905D01*
X132000000Y-50000000D02*
X119350000Y-50000000D01*
X184000000Y-52500000D02*
X184000000Y-85000000D01*
X136350000Y-48000000D02*
X134190000Y-48000000D01*
X115190000Y-48000000D02*
X115190000Y-53310000D01*
X115190000Y-53310000D02*
X114000000Y-54500000D01*
X134000000Y-48000000D02*
X132000000Y-50000000D01*
X109500000Y-65000000D02*
X100350000Y-65000000D01*
X138350000Y-50000000D02*
X136350000Y-48000000D01*
X203500000Y-66862190D02*
X203931095Y-66431095D01*
X117350000Y-48000000D02*
X115190000Y-48000000D01*
X157350000Y-50000000D02*
X155350000Y-48000000D01*
X114000000Y-54500000D02*
X109500000Y-54500000D01*
X170190000Y-50000000D02*
X157350000Y-50000000D01*
X203500000Y-69862190D02*
X203500000Y-66862190D01*
X153190000Y-48000000D02*
X151190000Y-50000000D01*
X155350000Y-48000000D02*
X153190000Y-48000000D01*
%TO.N,P18*%
X173500000Y-95000000D02*
X167500000Y-95000000D01*
X204500000Y-71090000D02*
X204500000Y-86137810D01*
X176350000Y-103000000D02*
X174350000Y-105000000D01*
X206380000Y-69210000D02*
X204500000Y-71090000D01*
X204500000Y-86137810D02*
X204137810Y-86500000D01*
X191190000Y-105000000D02*
X189190000Y-103000000D01*
X193350000Y-105000000D02*
X191190000Y-105000000D01*
X167000000Y-101000000D02*
X171000000Y-105000000D01*
X171000000Y-105000000D02*
X172190000Y-105000000D01*
X167000000Y-95500000D02*
X167000000Y-101000000D01*
X189190000Y-103000000D02*
X176350000Y-103000000D01*
X182000000Y-86500000D02*
X173500000Y-95000000D01*
X204137810Y-86500000D02*
X182000000Y-86500000D01*
X167500000Y-95000000D02*
X167000000Y-95500000D01*
X174350000Y-105000000D02*
X172190000Y-105000000D01*
%TO.N,P4*%
X305190000Y-86000000D02*
X307350000Y-86000000D01*
X265911500Y-84721500D02*
X267190000Y-86000000D01*
X318500000Y-99310000D02*
X324190000Y-105000000D01*
X318500000Y-88500000D02*
X318500000Y-99310000D01*
X223500000Y-68550000D02*
X223500000Y-70452190D01*
X223500000Y-70452190D02*
X224451000Y-71403190D01*
X269350000Y-86000000D02*
X270628500Y-84721500D01*
X270628500Y-84721500D02*
X284911500Y-84721500D01*
X250350000Y-86000000D02*
X251628500Y-84721500D01*
X286190000Y-86000000D02*
X288350000Y-86000000D01*
X267190000Y-86000000D02*
X269350000Y-86000000D01*
X303911500Y-84721500D02*
X305190000Y-86000000D01*
X288350000Y-86000000D02*
X289628500Y-84721500D01*
X248190000Y-86000000D02*
X250350000Y-86000000D01*
X324190000Y-105000000D02*
X326350000Y-105000000D01*
X289628500Y-84721500D02*
X303911500Y-84721500D01*
X307350000Y-86000000D02*
X309850000Y-88500000D01*
X221620000Y-66670000D02*
X223500000Y-68550000D01*
X224451000Y-85951000D02*
X224500000Y-86000000D01*
X284911500Y-84721500D02*
X286190000Y-86000000D01*
X309850000Y-88500000D02*
X318500000Y-88500000D01*
X224500000Y-86000000D02*
X248190000Y-86000000D01*
X224451000Y-71403190D02*
X224451000Y-85951000D01*
X251628500Y-84721500D02*
X265911500Y-84721500D01*
%TO.N,P0*%
X250350000Y-67000000D02*
X251628500Y-65721500D01*
X269350000Y-67000000D02*
X270628500Y-65721500D01*
X289628500Y-65721500D02*
X303911500Y-65721500D01*
X303911500Y-65721500D02*
X305190000Y-67000000D01*
X223951000Y-68363190D02*
X223951000Y-70265380D01*
X265911500Y-65721500D02*
X267190000Y-67000000D01*
X224902000Y-71216380D02*
X224902000Y-85500000D01*
X243000000Y-85500000D02*
X243000000Y-72190000D01*
X284911500Y-65721500D02*
X286190000Y-67000000D01*
X223500000Y-67912190D02*
X223951000Y-68363190D01*
X224902000Y-85500000D02*
X243000000Y-85500000D01*
X251628500Y-65721500D02*
X265911500Y-65721500D01*
X318500000Y-71500000D02*
X318500000Y-80310000D01*
X223500000Y-55850000D02*
X223500000Y-67912190D01*
X221620000Y-53970000D02*
X223500000Y-55850000D01*
X288350000Y-67000000D02*
X289628500Y-65721500D01*
X243000000Y-72190000D02*
X248190000Y-67000000D01*
X311850000Y-71500000D02*
X318500000Y-71500000D01*
X307350000Y-67000000D02*
X311850000Y-71500000D01*
X286190000Y-67000000D02*
X288350000Y-67000000D01*
X267190000Y-67000000D02*
X269350000Y-67000000D01*
X223951000Y-70265380D02*
X224902000Y-71216380D01*
X326350000Y-86000000D02*
X324190000Y-86000000D01*
X305190000Y-67000000D02*
X307350000Y-67000000D01*
X248190000Y-67000000D02*
X250350000Y-67000000D01*
X270628500Y-65721500D02*
X284911500Y-65721500D01*
X318500000Y-80310000D02*
X324190000Y-86000000D01*
%TO.N,P1*%
X224000000Y-67500000D02*
X224500000Y-68000000D01*
X225500000Y-85000000D02*
X242500000Y-85000000D01*
X246500000Y-68000000D02*
X246500000Y-63500000D01*
X265690000Y-46500000D02*
X267190000Y-48000000D01*
X284690000Y-46500000D02*
X286190000Y-48000000D01*
X221620000Y-51430000D02*
X223500000Y-53310000D01*
X224500000Y-68000000D02*
X224500000Y-70000000D01*
X307350000Y-48000000D02*
X305190000Y-48000000D01*
X224500000Y-70000000D02*
X225500000Y-71000000D01*
X307350000Y-48000000D02*
X311850000Y-52500000D01*
X243000000Y-62500000D02*
X243000000Y-53190000D01*
X243000000Y-53190000D02*
X248190000Y-48000000D01*
X324190000Y-67000000D02*
X326350000Y-67000000D01*
X303911500Y-46721500D02*
X305190000Y-48000000D01*
X289628500Y-46721500D02*
X303911500Y-46721500D01*
X267190000Y-48000000D02*
X269350000Y-48000000D01*
X225500000Y-71000000D02*
X225500000Y-85000000D01*
X242500000Y-72000000D02*
X246500000Y-68000000D01*
X269350000Y-48000000D02*
X270850000Y-46500000D01*
X242500000Y-85000000D02*
X242500000Y-72000000D01*
X311850000Y-52500000D02*
X318500000Y-52500000D01*
X250350000Y-48000000D02*
X251850000Y-46500000D01*
X288350000Y-48000000D02*
X289628500Y-46721500D01*
X248190000Y-48000000D02*
X250350000Y-48000000D01*
X246500000Y-63500000D02*
X244000000Y-63500000D01*
X223500000Y-53310000D02*
X223500000Y-55000000D01*
X318500000Y-52500000D02*
X318500000Y-61310000D01*
X223500000Y-55000000D02*
X224000000Y-55500000D01*
X224000000Y-55500000D02*
X224000000Y-67500000D01*
X244000000Y-63500000D02*
X243000000Y-62500000D01*
X251850000Y-46500000D02*
X265690000Y-46500000D01*
X286190000Y-48000000D02*
X288350000Y-48000000D01*
X318500000Y-61310000D02*
X324190000Y-67000000D01*
X270850000Y-46500000D02*
X284690000Y-46500000D01*
%TO.N,P5*%
X231190000Y-103000000D02*
X229190000Y-105000000D01*
X231350000Y-105000000D02*
X232628500Y-103721500D01*
X224000000Y-86137810D02*
X224362190Y-86500000D01*
X232628500Y-103721500D02*
X246911500Y-103721500D01*
X224362190Y-86500000D02*
X242500000Y-86500000D01*
X246911500Y-103721500D02*
X248190000Y-105000000D01*
X242500000Y-86500000D02*
X242500000Y-103000000D01*
X231350000Y-105000000D02*
X229190000Y-105000000D01*
X248190000Y-105000000D02*
X250350000Y-105000000D01*
X224000000Y-71590000D02*
X224000000Y-86137810D01*
X221620000Y-69210000D02*
X224000000Y-71590000D01*
X242500000Y-103000000D02*
X231190000Y-103000000D01*
%TO.N,pinky_bottom*%
X103810000Y-105000000D02*
X101650000Y-105000000D01*
%TO.N,pinky_home*%
X103810000Y-86000000D02*
X101650000Y-86000000D01*
%TO.N,pinky_top*%
X103810000Y-67000000D02*
X101650000Y-67000000D01*
%TO.N,ring_bottom*%
X122810000Y-86000000D02*
X120650000Y-86000000D01*
%TO.N,ring_home*%
X122810000Y-67000000D02*
X120650000Y-67000000D01*
%TO.N,ring_top*%
X122810000Y-48000000D02*
X120650000Y-48000000D01*
%TO.N,middle_bottom*%
X141810000Y-86000000D02*
X139650000Y-86000000D01*
%TO.N,middle_home*%
X141810000Y-67000000D02*
X139650000Y-67000000D01*
%TO.N,middle_top*%
X141810000Y-48000000D02*
X139650000Y-48000000D01*
%TO.N,index_bottom*%
X160810000Y-86000000D02*
X158650000Y-86000000D01*
%TO.N,index_home*%
X160810000Y-67000000D02*
X158650000Y-67000000D01*
%TO.N,index_top*%
X160810000Y-48000000D02*
X158650000Y-48000000D01*
%TO.N,inner_bottom*%
X179810000Y-86000000D02*
X177650000Y-86000000D01*
%TO.N,inner_home*%
X179810000Y-67000000D02*
X177650000Y-67000000D01*
%TO.N,inner_top*%
X179810000Y-48000000D02*
X177650000Y-48000000D01*
%TO.N,tucky_cluster*%
X179810000Y-105000000D02*
X177650000Y-105000000D01*
%TO.N,reachy_cluster*%
X198810000Y-105000000D02*
X196650000Y-105000000D01*
%TO.N,mirror_pinky_bottom*%
X331810000Y-105000000D02*
X329650000Y-105000000D01*
%TO.N,mirror_pinky_home*%
X331810000Y-86000000D02*
X329650000Y-86000000D01*
%TO.N,mirror_pinky_top*%
X331810000Y-67000000D02*
X329650000Y-67000000D01*
%TO.N,mirror_ring_bottom*%
X312810000Y-86000000D02*
X310650000Y-86000000D01*
%TO.N,mirror_ring_home*%
X312810000Y-67000000D02*
X310650000Y-67000000D01*
%TO.N,mirror_ring_top*%
X310650000Y-48000000D02*
X312810000Y-48000000D01*
%TO.N,mirror_middle_bottom*%
X293810000Y-86000000D02*
X291650000Y-86000000D01*
%TO.N,mirror_middle_home*%
X293810000Y-67000000D02*
X291650000Y-67000000D01*
%TO.N,mirror_middle_top*%
X291650000Y-48000000D02*
X293810000Y-48000000D01*
%TO.N,mirror_index_bottom*%
X274810000Y-86000000D02*
X272650000Y-86000000D01*
%TO.N,mirror_index_home*%
X274810000Y-67000000D02*
X272650000Y-67000000D01*
%TO.N,mirror_index_top*%
X272650000Y-48000000D02*
X274810000Y-48000000D01*
%TO.N,mirror_inner_bottom*%
X255810000Y-86000000D02*
X253650000Y-86000000D01*
%TO.N,mirror_inner_home*%
X255810000Y-67000000D02*
X253650000Y-67000000D01*
%TO.N,mirror_inner_top*%
X253650000Y-48000000D02*
X255810000Y-48000000D01*
%TO.N,mirror_tucky_cluster*%
X255810000Y-105000000D02*
X253650000Y-105000000D01*
%TO.N,mirror_reachy_cluster*%
X236810000Y-105000000D02*
X234650000Y-105000000D01*
%TD*%
M02*
