M48
; DRILL file {KiCad 9.0.1} date 2025-05-09T00:25:48+0200
; FORMAT={-:-/ absolute / metric / decimal}
; #@! TF.CreationDate,2025-05-09T00:25:48+02:00
; #@! TF.GenerationSoftware,Kicad,Pcbnew,9.0.1
; #@! TF.FileFunction,NonPlated,1,2,NPTH
FMAT,2
METRIC
; #@! TA.AperFunction,NonPlated,NPTH,ComponentDrill
T1C1.702
; #@! TA.AperFunction,NonPlated,NPTH,ComponentDrill
T2C3.000
; #@! TA.AperFunction,NonPlated,NPTH,ComponentDrill
T3C3.988
%
G90
G05
T1
X94.92Y-62.0
X94.92Y-81.0
X94.92Y-100.0
X105.08Y-62.0
X105.08Y-81.0
X105.08Y-100.0
X113.92Y-43.0
X113.92Y-62.0
X113.92Y-81.0
X124.08Y-43.0
X124.08Y-62.0
X124.08Y-81.0
X132.92Y-43.0
X132.92Y-62.0
X132.92Y-81.0
X143.08Y-43.0
X143.08Y-62.0
X143.08Y-81.0
X151.92Y-43.0
X151.92Y-62.0
X151.92Y-81.0
X162.08Y-43.0
X162.08Y-62.0
X162.08Y-81.0
X170.92Y-43.0
X170.92Y-62.0
X170.92Y-81.0
X170.92Y-100.0
X181.08Y-43.0
X181.08Y-62.0
X181.08Y-81.0
X181.08Y-100.0
X189.92Y-100.0
X200.08Y-100.0
X227.92Y-100.0
X238.08Y-100.0
X246.92Y-43.0
X246.92Y-62.0
X246.92Y-81.0
X246.92Y-100.0
X257.08Y-43.0
X257.08Y-62.0
X257.08Y-81.0
X257.08Y-100.0
X265.92Y-43.0
X265.92Y-62.0
X265.92Y-81.0
X276.08Y-43.0
X276.08Y-62.0
X276.08Y-81.0
X284.92Y-43.0
X284.92Y-62.0
X284.92Y-81.0
X295.08Y-43.0
X295.08Y-62.0
X295.08Y-81.0
X303.92Y-43.0
X303.92Y-62.0
X303.92Y-81.0
X314.08Y-43.0
X314.08Y-62.0
X314.08Y-81.0
X322.92Y-62.0
X322.92Y-81.0
X322.92Y-100.0
X333.08Y-62.0
X333.08Y-81.0
X333.08Y-100.0
T2
X96.19Y-59.46
X96.19Y-78.46
X96.19Y-97.46
X102.54Y-56.92
X102.54Y-75.92
X102.54Y-94.92
X115.19Y-40.46
X115.19Y-59.46
X115.19Y-78.46
X121.54Y-37.92
X121.54Y-56.92
X121.54Y-75.92
X134.19Y-40.46
X134.19Y-59.46
X134.19Y-78.46
X140.54Y-37.92
X140.54Y-56.92
X140.54Y-75.92
X153.19Y-40.46
X153.19Y-59.46
X153.19Y-78.46
X159.54Y-37.92
X159.54Y-56.92
X159.54Y-75.92
X172.19Y-40.46
X172.19Y-59.46
X172.19Y-78.46
X172.19Y-97.46
X178.54Y-37.92
X178.54Y-56.92
X178.54Y-75.92
X178.54Y-94.92
X191.19Y-97.46
X197.54Y-94.92
X229.19Y-97.46
X235.54Y-94.92
X248.19Y-40.46
X248.19Y-59.46
X248.19Y-78.46
X248.19Y-97.46
X254.54Y-37.92
X254.54Y-56.92
X254.54Y-75.92
X254.54Y-94.92
X267.19Y-40.46
X267.19Y-59.46
X267.19Y-78.46
X273.54Y-37.92
X273.54Y-56.92
X273.54Y-75.92
X286.19Y-40.46
X286.19Y-59.46
X286.19Y-78.46
X292.54Y-37.92
X292.54Y-56.92
X292.54Y-75.92
X305.19Y-40.46
X305.19Y-59.46
X305.19Y-78.46
X311.54Y-37.92
X311.54Y-56.92
X311.54Y-75.92
X324.19Y-59.46
X324.19Y-78.46
X324.19Y-97.46
X330.54Y-56.92
X330.54Y-75.92
X330.54Y-94.92
T3
X100.0Y-62.0
X100.0Y-81.0
X100.0Y-100.0
X119.0Y-43.0
X119.0Y-62.0
X119.0Y-81.0
X138.0Y-43.0
X138.0Y-62.0
X138.0Y-81.0
X157.0Y-43.0
X157.0Y-62.0
X157.0Y-81.0
X176.0Y-43.0
X176.0Y-62.0
X176.0Y-81.0
X176.0Y-100.0
X195.0Y-100.0
X233.0Y-100.0
X252.0Y-43.0
X252.0Y-62.0
X252.0Y-81.0
X252.0Y-100.0
X271.0Y-43.0
X271.0Y-62.0
X271.0Y-81.0
X290.0Y-43.0
X290.0Y-62.0
X290.0Y-81.0
X309.0Y-43.0
X309.0Y-62.0
X309.0Y-81.0
X328.0Y-62.0
X328.0Y-81.0
X328.0Y-100.0
M30
