%TF.GenerationSoftware,KiCad,Pcbnew,9.0.1*%
%TF.CreationDate,2025-05-09T00:25:46+02:00*%
%TF.ProjectId,cmrk,636d726b-2e6b-4696-9361-645f70636258,v1.0.0*%
%TF.SameCoordinates,Original*%
%TF.FileFunction,Soldermask,Bot*%
%TF.FilePolarity,Negative*%
%FSLAX46Y46*%
G04 Gerber Fmt 4.6, Leading zero omitted, Abs format (unit mm)*
G04 Created by KiCad (PCBNEW 9.0.1) date 2025-05-09 00:25:46*
%MOMM*%
%LPD*%
G01*
G04 APERTURE LIST*
G04 Aperture macros list*
%AMRoundRect*
0 Rectangle with rounded corners*
0 $1 Rounding radius*
0 $2 $3 $4 $5 $6 $7 $8 $9 X,Y pos of 4 corners*
0 Add a 4 corners polygon primitive as box body*
4,1,4,$2,$3,$4,$5,$6,$7,$8,$9,$2,$3,0*
0 Add four circle primitives for the rounded corners*
1,1,$1+$1,$2,$3*
1,1,$1+$1,$4,$5*
1,1,$1+$1,$6,$7*
1,1,$1+$1,$8,$9*
0 Add four rect primitives between the rounded corners*
20,1,$1+$1,$2,$3,$4,$5,0*
20,1,$1+$1,$4,$5,$6,$7,0*
20,1,$1+$1,$6,$7,$8,$9,0*
20,1,$1+$1,$8,$9,$2,$3,0*%
G04 Aperture macros list end*
%ADD10C,1.801800*%
%ADD11C,3.100000*%
%ADD12C,4.087800*%
%ADD13RoundRect,0.050000X-1.275000X-1.250000X1.275000X-1.250000X1.275000X1.250000X-1.275000X1.250000X0*%
%ADD14RoundRect,0.050000X-0.889000X-0.889000X0.889000X-0.889000X0.889000X0.889000X-0.889000X0.889000X0*%
%ADD15RoundRect,0.050000X-0.450000X-0.600000X0.450000X-0.600000X0.450000X0.600000X-0.450000X0.600000X0*%
%ADD16C,2.005000*%
%ADD17RoundRect,0.050000X-0.876300X0.876300X-0.876300X-0.876300X0.876300X-0.876300X0.876300X0.876300X0*%
%ADD18C,1.852600*%
G04 APERTURE END LIST*
D10*
%TO.C,S22*%
X303920000Y-62000000D03*
D11*
X305190000Y-59460000D03*
D12*
X309000000Y-62000000D03*
D11*
X311540000Y-56920000D03*
D10*
X314080000Y-62000000D03*
D13*
X301915000Y-59460000D03*
X314842000Y-56920000D03*
%TD*%
D10*
%TO.C,S19*%
X322920000Y-81000000D03*
D11*
X324190000Y-78460000D03*
D12*
X328000000Y-81000000D03*
D11*
X330540000Y-75920000D03*
D10*
X333080000Y-81000000D03*
D13*
X320915000Y-78460000D03*
X333842000Y-75920000D03*
%TD*%
D10*
%TO.C,S18*%
X322920000Y-100000000D03*
D11*
X324190000Y-97460000D03*
D12*
X328000000Y-100000000D03*
D11*
X330540000Y-94920000D03*
D10*
X333080000Y-100000000D03*
D13*
X320915000Y-97460000D03*
X333842000Y-94920000D03*
%TD*%
D14*
%TO.C,D22*%
X305190000Y-67000000D03*
D15*
X307350000Y-67000000D03*
X310650000Y-67000000D03*
D16*
X312810000Y-67000000D03*
%TD*%
D14*
%TO.C,D10*%
X153190000Y-86000000D03*
D15*
X155350000Y-86000000D03*
X158650000Y-86000000D03*
D16*
X160810000Y-86000000D03*
%TD*%
D14*
%TO.C,D24*%
X286190000Y-86000000D03*
D15*
X288350000Y-86000000D03*
X291650000Y-86000000D03*
D16*
X293810000Y-86000000D03*
%TD*%
D14*
%TO.C,D9*%
X134190000Y-48000000D03*
D15*
X136350000Y-48000000D03*
X139650000Y-48000000D03*
D16*
X141810000Y-48000000D03*
%TD*%
D14*
%TO.C,D20*%
X324190000Y-67000000D03*
D15*
X326350000Y-67000000D03*
X329650000Y-67000000D03*
D16*
X331810000Y-67000000D03*
%TD*%
D14*
%TO.C,D33*%
X248190000Y-105000000D03*
D15*
X250350000Y-105000000D03*
X253650000Y-105000000D03*
D16*
X255810000Y-105000000D03*
%TD*%
D10*
%TO.C,S10*%
X151920000Y-81000000D03*
D11*
X153190000Y-78460000D03*
D12*
X157000000Y-81000000D03*
D11*
X159540000Y-75920000D03*
D10*
X162080000Y-81000000D03*
D13*
X149915000Y-78460000D03*
X162842000Y-75920000D03*
%TD*%
D14*
%TO.C,D29*%
X267190000Y-48000000D03*
D15*
X269350000Y-48000000D03*
X272650000Y-48000000D03*
D16*
X274810000Y-48000000D03*
%TD*%
D10*
%TO.C,S34*%
X227920000Y-100000000D03*
D11*
X229190000Y-97460000D03*
D12*
X233000000Y-100000000D03*
D11*
X235540000Y-94920000D03*
D10*
X238080000Y-100000000D03*
D13*
X225915000Y-97460000D03*
X238842000Y-94920000D03*
%TD*%
D10*
%TO.C,S6*%
X113920000Y-43000000D03*
D11*
X115190000Y-40460000D03*
D12*
X119000000Y-43000000D03*
D11*
X121540000Y-37920000D03*
D10*
X124080000Y-43000000D03*
D13*
X111915000Y-40460000D03*
X124842000Y-37920000D03*
%TD*%
D10*
%TO.C,S9*%
X132920000Y-43000000D03*
D11*
X134190000Y-40460000D03*
D12*
X138000000Y-43000000D03*
D11*
X140540000Y-37920000D03*
D10*
X143080000Y-43000000D03*
D13*
X130915000Y-40460000D03*
X143842000Y-37920000D03*
%TD*%
D14*
%TO.C,D18*%
X324190000Y-105000000D03*
D15*
X326350000Y-105000000D03*
X329650000Y-105000000D03*
D16*
X331810000Y-105000000D03*
%TD*%
D10*
%TO.C,S23*%
X303920000Y-43000000D03*
D11*
X305190000Y-40460000D03*
D12*
X309000000Y-43000000D03*
D11*
X311540000Y-37920000D03*
D10*
X314080000Y-43000000D03*
D13*
X301915000Y-40460000D03*
X314842000Y-37920000D03*
%TD*%
D14*
%TO.C,D23*%
X305190000Y-48000000D03*
D15*
X307350000Y-48000000D03*
X310650000Y-48000000D03*
D16*
X312810000Y-48000000D03*
%TD*%
D10*
%TO.C,S21*%
X303920000Y-81000000D03*
D11*
X305190000Y-78460000D03*
D12*
X309000000Y-81000000D03*
D11*
X311540000Y-75920000D03*
D10*
X314080000Y-81000000D03*
D13*
X301915000Y-78460000D03*
X314842000Y-75920000D03*
%TD*%
D14*
%TO.C,D5*%
X115190000Y-67000000D03*
D15*
X117350000Y-67000000D03*
X120650000Y-67000000D03*
D16*
X122810000Y-67000000D03*
%TD*%
D14*
%TO.C,D26*%
X286190000Y-48000000D03*
D15*
X288350000Y-48000000D03*
X291650000Y-48000000D03*
D16*
X293810000Y-48000000D03*
%TD*%
D10*
%TO.C,S13*%
X170920000Y-81000000D03*
D11*
X172190000Y-78460000D03*
D12*
X176000000Y-81000000D03*
D11*
X178540000Y-75920000D03*
D10*
X181080000Y-81000000D03*
D13*
X168915000Y-78460000D03*
X181842000Y-75920000D03*
%TD*%
D10*
%TO.C,S26*%
X284920000Y-43000000D03*
D11*
X286190000Y-40460000D03*
D12*
X290000000Y-43000000D03*
D11*
X292540000Y-37920000D03*
D10*
X295080000Y-43000000D03*
D13*
X282915000Y-40460000D03*
X295842000Y-37920000D03*
%TD*%
D10*
%TO.C,S25*%
X284920000Y-62000000D03*
D11*
X286190000Y-59460000D03*
D12*
X290000000Y-62000000D03*
D11*
X292540000Y-56920000D03*
D10*
X295080000Y-62000000D03*
D13*
X282915000Y-59460000D03*
X295842000Y-56920000D03*
%TD*%
D14*
%TO.C,D31*%
X248190000Y-67000000D03*
D15*
X250350000Y-67000000D03*
X253650000Y-67000000D03*
D16*
X255810000Y-67000000D03*
%TD*%
D10*
%TO.C,S5*%
X113920000Y-62000000D03*
D11*
X115190000Y-59460000D03*
D12*
X119000000Y-62000000D03*
D11*
X121540000Y-56920000D03*
D10*
X124080000Y-62000000D03*
D13*
X111915000Y-59460000D03*
X124842000Y-56920000D03*
%TD*%
D10*
%TO.C,S2*%
X94920000Y-81000000D03*
D11*
X96190000Y-78460000D03*
D12*
X100000000Y-81000000D03*
D11*
X102540000Y-75920000D03*
D10*
X105080000Y-81000000D03*
D13*
X92915000Y-78460000D03*
X105842000Y-75920000D03*
%TD*%
D14*
%TO.C,D17*%
X191190000Y-105000000D03*
D15*
X193350000Y-105000000D03*
X196650000Y-105000000D03*
D16*
X198810000Y-105000000D03*
%TD*%
D14*
%TO.C,D14*%
X172190000Y-67000000D03*
D15*
X174350000Y-67000000D03*
X177650000Y-67000000D03*
D16*
X179810000Y-67000000D03*
%TD*%
D10*
%TO.C,S28*%
X265920000Y-62000000D03*
D11*
X267190000Y-59460000D03*
D12*
X271000000Y-62000000D03*
D11*
X273540000Y-56920000D03*
D10*
X276080000Y-62000000D03*
D13*
X263915000Y-59460000D03*
X276842000Y-56920000D03*
%TD*%
D10*
%TO.C,S15*%
X170920000Y-43000000D03*
D11*
X172190000Y-40460000D03*
D12*
X176000000Y-43000000D03*
D11*
X178540000Y-37920000D03*
D10*
X181080000Y-43000000D03*
D13*
X168915000Y-40460000D03*
X181842000Y-37920000D03*
%TD*%
D10*
%TO.C,S1*%
X94920000Y-100000000D03*
D11*
X96190000Y-97460000D03*
D12*
X100000000Y-100000000D03*
D11*
X102540000Y-94920000D03*
D10*
X105080000Y-100000000D03*
D13*
X92915000Y-97460000D03*
X105842000Y-94920000D03*
%TD*%
D14*
%TO.C,D19*%
X324190000Y-86000000D03*
D15*
X326350000Y-86000000D03*
X329650000Y-86000000D03*
D16*
X331810000Y-86000000D03*
%TD*%
D10*
%TO.C,S12*%
X151920000Y-43000000D03*
D11*
X153190000Y-40460000D03*
D12*
X157000000Y-43000000D03*
D11*
X159540000Y-37920000D03*
D10*
X162080000Y-43000000D03*
D13*
X149915000Y-40460000D03*
X162842000Y-37920000D03*
%TD*%
D14*
%TO.C,D28*%
X267190000Y-67000000D03*
D15*
X269350000Y-67000000D03*
X272650000Y-67000000D03*
D16*
X274810000Y-67000000D03*
%TD*%
D10*
%TO.C,S29*%
X265920000Y-43000000D03*
D11*
X267190000Y-40460000D03*
D12*
X271000000Y-43000000D03*
D11*
X273540000Y-37920000D03*
D10*
X276080000Y-43000000D03*
D13*
X263915000Y-40460000D03*
X276842000Y-37920000D03*
%TD*%
D10*
%TO.C,S14*%
X170920000Y-62000000D03*
D11*
X172190000Y-59460000D03*
D12*
X176000000Y-62000000D03*
D11*
X178540000Y-56920000D03*
D10*
X181080000Y-62000000D03*
D13*
X168915000Y-59460000D03*
X181842000Y-56920000D03*
%TD*%
D10*
%TO.C,S24*%
X284920000Y-81000000D03*
D11*
X286190000Y-78460000D03*
D12*
X290000000Y-81000000D03*
D11*
X292540000Y-75920000D03*
D10*
X295080000Y-81000000D03*
D13*
X282915000Y-78460000D03*
X295842000Y-75920000D03*
%TD*%
D10*
%TO.C,S20*%
X322920000Y-62000000D03*
D11*
X324190000Y-59460000D03*
D12*
X328000000Y-62000000D03*
D11*
X330540000Y-56920000D03*
D10*
X333080000Y-62000000D03*
D13*
X320915000Y-59460000D03*
X333842000Y-56920000D03*
%TD*%
D14*
%TO.C,D34*%
X229190000Y-105000000D03*
D15*
X231350000Y-105000000D03*
X234650000Y-105000000D03*
D16*
X236810000Y-105000000D03*
%TD*%
D14*
%TO.C,D27*%
X267190000Y-86000000D03*
D15*
X269350000Y-86000000D03*
X272650000Y-86000000D03*
D16*
X274810000Y-86000000D03*
%TD*%
D14*
%TO.C,D6*%
X115190000Y-48000000D03*
D15*
X117350000Y-48000000D03*
X120650000Y-48000000D03*
D16*
X122810000Y-48000000D03*
%TD*%
D14*
%TO.C,D8*%
X134190000Y-67000000D03*
D15*
X136350000Y-67000000D03*
X139650000Y-67000000D03*
D16*
X141810000Y-67000000D03*
%TD*%
D10*
%TO.C,S4*%
X113920000Y-81000000D03*
D11*
X115190000Y-78460000D03*
D12*
X119000000Y-81000000D03*
D11*
X121540000Y-75920000D03*
D10*
X124080000Y-81000000D03*
D13*
X111915000Y-78460000D03*
X124842000Y-75920000D03*
%TD*%
D14*
%TO.C,D30*%
X248190000Y-86000000D03*
D15*
X250350000Y-86000000D03*
X253650000Y-86000000D03*
D16*
X255810000Y-86000000D03*
%TD*%
D14*
%TO.C,D11*%
X153190000Y-67000000D03*
D15*
X155350000Y-67000000D03*
X158650000Y-67000000D03*
D16*
X160810000Y-67000000D03*
%TD*%
D10*
%TO.C,S30*%
X246920000Y-81000000D03*
D11*
X248190000Y-78460000D03*
D12*
X252000000Y-81000000D03*
D11*
X254540000Y-75920000D03*
D10*
X257080000Y-81000000D03*
D13*
X244915000Y-78460000D03*
X257842000Y-75920000D03*
%TD*%
D14*
%TO.C,D7*%
X134190000Y-86000000D03*
D15*
X136350000Y-86000000D03*
X139650000Y-86000000D03*
D16*
X141810000Y-86000000D03*
%TD*%
D10*
%TO.C,S16*%
X170920000Y-100000000D03*
D11*
X172190000Y-97460000D03*
D12*
X176000000Y-100000000D03*
D11*
X178540000Y-94920000D03*
D10*
X181080000Y-100000000D03*
D13*
X168915000Y-97460000D03*
X181842000Y-94920000D03*
%TD*%
D14*
%TO.C,D25*%
X286190000Y-67000000D03*
D15*
X288350000Y-67000000D03*
X291650000Y-67000000D03*
D16*
X293810000Y-67000000D03*
%TD*%
D14*
%TO.C,D32*%
X248190000Y-48000000D03*
D15*
X250350000Y-48000000D03*
X253650000Y-48000000D03*
D16*
X255810000Y-48000000D03*
%TD*%
D17*
%TO.C,MCU1*%
X206380000Y-51430000D03*
D18*
X206380000Y-53970000D03*
X206380000Y-56510000D03*
X206380000Y-59050000D03*
X206380000Y-61590000D03*
X206380000Y-64130000D03*
X206380000Y-66670000D03*
X206380000Y-69210000D03*
X206380000Y-71750000D03*
X206380000Y-74290000D03*
X206380000Y-76830000D03*
X206380000Y-79370000D03*
X221620000Y-51430000D03*
X221620000Y-53970000D03*
X221620000Y-56510000D03*
X221620000Y-59050000D03*
X221620000Y-61590000D03*
X221620000Y-64130000D03*
X221620000Y-66670000D03*
X221620000Y-69210000D03*
X221620000Y-71750000D03*
X221620000Y-74290000D03*
X221620000Y-76830000D03*
X221620000Y-79370000D03*
%TD*%
D14*
%TO.C,D1*%
X96190000Y-105000000D03*
D15*
X98350000Y-105000000D03*
X101650000Y-105000000D03*
D16*
X103810000Y-105000000D03*
%TD*%
D10*
%TO.C,S7*%
X132920000Y-81000000D03*
D11*
X134190000Y-78460000D03*
D12*
X138000000Y-81000000D03*
D11*
X140540000Y-75920000D03*
D10*
X143080000Y-81000000D03*
D13*
X130915000Y-78460000D03*
X143842000Y-75920000D03*
%TD*%
D14*
%TO.C,D21*%
X305190000Y-86000000D03*
D15*
X307350000Y-86000000D03*
X310650000Y-86000000D03*
D16*
X312810000Y-86000000D03*
%TD*%
D14*
%TO.C,D13*%
X172190000Y-86000000D03*
D15*
X174350000Y-86000000D03*
X177650000Y-86000000D03*
D16*
X179810000Y-86000000D03*
%TD*%
D14*
%TO.C,D3*%
X96190000Y-67000000D03*
D15*
X98350000Y-67000000D03*
X101650000Y-67000000D03*
D16*
X103810000Y-67000000D03*
%TD*%
D10*
%TO.C,S32*%
X246920000Y-43000000D03*
D11*
X248190000Y-40460000D03*
D12*
X252000000Y-43000000D03*
D11*
X254540000Y-37920000D03*
D10*
X257080000Y-43000000D03*
D13*
X244915000Y-40460000D03*
X257842000Y-37920000D03*
%TD*%
D10*
%TO.C,S11*%
X151920000Y-62000000D03*
D11*
X153190000Y-59460000D03*
D12*
X157000000Y-62000000D03*
D11*
X159540000Y-56920000D03*
D10*
X162080000Y-62000000D03*
D13*
X149915000Y-59460000D03*
X162842000Y-56920000D03*
%TD*%
D14*
%TO.C,D16*%
X172190000Y-105000000D03*
D15*
X174350000Y-105000000D03*
X177650000Y-105000000D03*
D16*
X179810000Y-105000000D03*
%TD*%
D10*
%TO.C,S33*%
X246920000Y-100000000D03*
D11*
X248190000Y-97460000D03*
D12*
X252000000Y-100000000D03*
D11*
X254540000Y-94920000D03*
D10*
X257080000Y-100000000D03*
D13*
X244915000Y-97460000D03*
X257842000Y-94920000D03*
%TD*%
D10*
%TO.C,S27*%
X265920000Y-81000000D03*
D11*
X267190000Y-78460000D03*
D12*
X271000000Y-81000000D03*
D11*
X273540000Y-75920000D03*
D10*
X276080000Y-81000000D03*
D13*
X263915000Y-78460000D03*
X276842000Y-75920000D03*
%TD*%
D10*
%TO.C,S8*%
X132920000Y-62000000D03*
D11*
X134190000Y-59460000D03*
D12*
X138000000Y-62000000D03*
D11*
X140540000Y-56920000D03*
D10*
X143080000Y-62000000D03*
D13*
X130915000Y-59460000D03*
X143842000Y-56920000D03*
%TD*%
D14*
%TO.C,D12*%
X153190000Y-48000000D03*
D15*
X155350000Y-48000000D03*
X158650000Y-48000000D03*
D16*
X160810000Y-48000000D03*
%TD*%
D14*
%TO.C,D15*%
X172190000Y-48000000D03*
D15*
X174350000Y-48000000D03*
X177650000Y-48000000D03*
D16*
X179810000Y-48000000D03*
%TD*%
D10*
%TO.C,S17*%
X189920000Y-100000000D03*
D11*
X191190000Y-97460000D03*
D12*
X195000000Y-100000000D03*
D11*
X197540000Y-94920000D03*
D10*
X200080000Y-100000000D03*
D13*
X187915000Y-97460000D03*
X200842000Y-94920000D03*
%TD*%
D10*
%TO.C,S31*%
X246920000Y-62000000D03*
D11*
X248190000Y-59460000D03*
D12*
X252000000Y-62000000D03*
D11*
X254540000Y-56920000D03*
D10*
X257080000Y-62000000D03*
D13*
X244915000Y-59460000D03*
X257842000Y-56920000D03*
%TD*%
D14*
%TO.C,D2*%
X96190000Y-86000000D03*
D15*
X98350000Y-86000000D03*
X101650000Y-86000000D03*
D16*
X103810000Y-86000000D03*
%TD*%
D10*
%TO.C,S3*%
X94920000Y-62000000D03*
D11*
X96190000Y-59460000D03*
D12*
X100000000Y-62000000D03*
D11*
X102540000Y-56920000D03*
D10*
X105080000Y-62000000D03*
D13*
X92915000Y-59460000D03*
X105842000Y-56920000D03*
%TD*%
D14*
%TO.C,D4*%
X115190000Y-86000000D03*
D15*
X117350000Y-86000000D03*
X120650000Y-86000000D03*
D16*
X122810000Y-86000000D03*
%TD*%
M02*
