%TF.GenerationSoftware,KiCad,Pcbnew,9.0.1*%
%TF.CreationDate,2025-05-09T00:25:46+02:00*%
%TF.ProjectId,cmrk,636d726b-2e6b-4696-9361-645f70636258,v1.0.0*%
%TF.SameCoordinates,Original*%
%TF.FileFunction,Profile,NP*%
%FSLAX46Y46*%
G04 Gerber Fmt 4.6, Leading zero omitted, Abs format (unit mm)*
G04 Created by KiCad (PCBNEW 9.0.1) date 2025-05-09 00:25:46*
%MOMM*%
%LPD*%
G01*
G04 APERTURE LIST*
%TA.AperFunction,Profile*%
%ADD10C,0.150000*%
%TD*%
G04 APERTURE END LIST*
D10*
X89397143Y-111902853D02*
G75*
G02*
X87400045Y-109902855I2857J1999953D01*
G01*
X225823053Y-32904857D02*
G75*
G02*
X227813510Y-31100010I1990447J-195143D01*
G01*
X106489457Y-33089401D02*
X106410471Y-47994164D01*
X338613684Y-50086409D02*
X323575817Y-49983519D01*
X319510571Y-31100000D02*
X227813510Y-31100000D01*
X202823053Y-39495143D02*
X202176947Y-32904857D01*
X161785663Y-111900000D02*
X266214337Y-111900000D01*
X319510571Y-31100000D02*
G75*
G02*
X321510572Y-33089401I29J-2000000D01*
G01*
X161785663Y-111900000D02*
G75*
G02*
X159785752Y-109914388I37J2000000D01*
G01*
X115414265Y-109951508D02*
G75*
G02*
X113411459Y-111937214I-1999965J14308D01*
G01*
X106489457Y-33089401D02*
G75*
G02*
X108489429Y-31100029I1999943J-10599D01*
G01*
X89397143Y-111902853D02*
X113411459Y-111937159D01*
X115485755Y-99985653D02*
G75*
G02*
X117485704Y-98000004I1999945J-14347D01*
G01*
X87400000Y-52086363D02*
X87400000Y-109902855D01*
X115414265Y-109951508D02*
X115485756Y-99985653D01*
X268214285Y-109914388D02*
X268285715Y-99985612D01*
X314588541Y-111937159D02*
X338602857Y-111902853D01*
X340600000Y-109902855D02*
G75*
G02*
X338602857Y-111902898I-2000000J-45D01*
G01*
X268214285Y-109914388D02*
G75*
G02*
X266214337Y-111900037I-1999985J14388D01*
G01*
X321589529Y-47994164D02*
X321510543Y-33089401D01*
X338613684Y-50086410D02*
G75*
G02*
X340600037Y-52086363I-13684J-1999990D01*
G01*
X270285663Y-98000000D02*
X310514296Y-98000000D01*
X268285715Y-99985612D02*
G75*
G02*
X270285663Y-97999963I1999985J-14388D01*
G01*
X323575817Y-49983519D02*
G75*
G02*
X321589562Y-47994164I13683J1999919D01*
G01*
X314588541Y-111937159D02*
G75*
G02*
X312585790Y-109951508I-2841J1999959D01*
G01*
X340600000Y-109902855D02*
X340600000Y-52086363D01*
X225176947Y-39495143D02*
G75*
G02*
X223186490Y-41299990I-1990447J195143D01*
G01*
X312514244Y-99985653D02*
X312585735Y-109951508D01*
X106410471Y-47994164D02*
G75*
G02*
X104424183Y-49983552I-1999971J10564D01*
G01*
X117485704Y-98000000D02*
X157714337Y-98000000D01*
X159714285Y-99985612D02*
X159785715Y-109914388D01*
X204813510Y-41300000D02*
G75*
G02*
X202823043Y-39495144I-10J2000000D01*
G01*
X104424183Y-49983519D02*
X89386316Y-50086409D01*
X200186490Y-31100000D02*
X108489429Y-31100000D01*
X225823053Y-32904857D02*
X225176947Y-39495143D01*
X200186490Y-31100000D02*
G75*
G02*
X202176957Y-32904856I10J-2000000D01*
G01*
X87399999Y-52086363D02*
G75*
G02*
X89386316Y-50086446I2000001J-37D01*
G01*
X157714337Y-98000000D02*
G75*
G02*
X159714248Y-99985612I-37J-2000000D01*
G01*
X223186490Y-41300000D02*
X204813510Y-41300000D01*
X310514296Y-98000001D02*
G75*
G02*
X312514248Y-99985653I4J-1999999D01*
G01*
M02*
