%TF.GenerationSoftware,KiCad,Pcbnew,9.0.1*%
%TF.CreationDate,2025-05-09T00:25:46+02:00*%
%TF.ProjectId,cmrk,636d726b-2e6b-4696-9361-645f70636258,v1.0.0*%
%TF.SameCoordinates,Original*%
%TF.FileFunction,Paste,Bot*%
%TF.FilePolarity,Positive*%
%FSLAX46Y46*%
G04 Gerber Fmt 4.6, Leading zero omitted, Abs format (unit mm)*
G04 Created by KiCad (PCBNEW 9.0.1) date 2025-05-09 00:25:46*
%MOMM*%
%LPD*%
G01*
G04 APERTURE LIST*
%ADD10R,2.550000X2.500000*%
%ADD11R,0.900000X1.200000*%
G04 APERTURE END LIST*
D10*
%TO.C,S22*%
X301915000Y-59460000D03*
X314842000Y-56920000D03*
%TD*%
%TO.C,S19*%
X320915000Y-78460000D03*
X333842000Y-75920000D03*
%TD*%
%TO.C,S18*%
X320915000Y-97460000D03*
X333842000Y-94920000D03*
%TD*%
D11*
%TO.C,D22*%
X307350000Y-67000000D03*
X310650000Y-67000000D03*
%TD*%
%TO.C,D10*%
X155350000Y-86000000D03*
X158650000Y-86000000D03*
%TD*%
%TO.C,D24*%
X288350000Y-86000000D03*
X291650000Y-86000000D03*
%TD*%
%TO.C,D9*%
X136350000Y-48000000D03*
X139650000Y-48000000D03*
%TD*%
%TO.C,D20*%
X326350000Y-67000000D03*
X329650000Y-67000000D03*
%TD*%
%TO.C,D33*%
X250350000Y-105000000D03*
X253650000Y-105000000D03*
%TD*%
D10*
%TO.C,S10*%
X149915000Y-78460000D03*
X162842000Y-75920000D03*
%TD*%
D11*
%TO.C,D29*%
X269350000Y-48000000D03*
X272650000Y-48000000D03*
%TD*%
D10*
%TO.C,S34*%
X225915000Y-97460000D03*
X238842000Y-94920000D03*
%TD*%
%TO.C,S6*%
X111915000Y-40460000D03*
X124842000Y-37920000D03*
%TD*%
%TO.C,S9*%
X130915000Y-40460000D03*
X143842000Y-37920000D03*
%TD*%
D11*
%TO.C,D18*%
X326350000Y-105000000D03*
X329650000Y-105000000D03*
%TD*%
D10*
%TO.C,S23*%
X301915000Y-40460000D03*
X314842000Y-37920000D03*
%TD*%
D11*
%TO.C,D23*%
X307350000Y-48000000D03*
X310650000Y-48000000D03*
%TD*%
D10*
%TO.C,S21*%
X301915000Y-78460000D03*
X314842000Y-75920000D03*
%TD*%
D11*
%TO.C,D5*%
X117350000Y-67000000D03*
X120650000Y-67000000D03*
%TD*%
%TO.C,D26*%
X288350000Y-48000000D03*
X291650000Y-48000000D03*
%TD*%
D10*
%TO.C,S13*%
X168915000Y-78460000D03*
X181842000Y-75920000D03*
%TD*%
%TO.C,S26*%
X282915000Y-40460000D03*
X295842000Y-37920000D03*
%TD*%
%TO.C,S25*%
X282915000Y-59460000D03*
X295842000Y-56920000D03*
%TD*%
D11*
%TO.C,D31*%
X250350000Y-67000000D03*
X253650000Y-67000000D03*
%TD*%
D10*
%TO.C,S5*%
X111915000Y-59460000D03*
X124842000Y-56920000D03*
%TD*%
%TO.C,S2*%
X92915000Y-78460000D03*
X105842000Y-75920000D03*
%TD*%
D11*
%TO.C,D17*%
X193350000Y-105000000D03*
X196650000Y-105000000D03*
%TD*%
%TO.C,D14*%
X174350000Y-67000000D03*
X177650000Y-67000000D03*
%TD*%
D10*
%TO.C,S28*%
X263915000Y-59460000D03*
X276842000Y-56920000D03*
%TD*%
%TO.C,S15*%
X168915000Y-40460000D03*
X181842000Y-37920000D03*
%TD*%
%TO.C,S1*%
X92915000Y-97460000D03*
X105842000Y-94920000D03*
%TD*%
D11*
%TO.C,D19*%
X326350000Y-86000000D03*
X329650000Y-86000000D03*
%TD*%
D10*
%TO.C,S12*%
X149915000Y-40460000D03*
X162842000Y-37920000D03*
%TD*%
D11*
%TO.C,D28*%
X269350000Y-67000000D03*
X272650000Y-67000000D03*
%TD*%
D10*
%TO.C,S29*%
X263915000Y-40460000D03*
X276842000Y-37920000D03*
%TD*%
%TO.C,S14*%
X168915000Y-59460000D03*
X181842000Y-56920000D03*
%TD*%
%TO.C,S24*%
X282915000Y-78460000D03*
X295842000Y-75920000D03*
%TD*%
%TO.C,S20*%
X320915000Y-59460000D03*
X333842000Y-56920000D03*
%TD*%
D11*
%TO.C,D34*%
X231350000Y-105000000D03*
X234650000Y-105000000D03*
%TD*%
%TO.C,D27*%
X269350000Y-86000000D03*
X272650000Y-86000000D03*
%TD*%
%TO.C,D6*%
X117350000Y-48000000D03*
X120650000Y-48000000D03*
%TD*%
%TO.C,D8*%
X136350000Y-67000000D03*
X139650000Y-67000000D03*
%TD*%
D10*
%TO.C,S4*%
X111915000Y-78460000D03*
X124842000Y-75920000D03*
%TD*%
D11*
%TO.C,D30*%
X250350000Y-86000000D03*
X253650000Y-86000000D03*
%TD*%
%TO.C,D11*%
X155350000Y-67000000D03*
X158650000Y-67000000D03*
%TD*%
D10*
%TO.C,S30*%
X244915000Y-78460000D03*
X257842000Y-75920000D03*
%TD*%
D11*
%TO.C,D7*%
X136350000Y-86000000D03*
X139650000Y-86000000D03*
%TD*%
D10*
%TO.C,S16*%
X168915000Y-97460000D03*
X181842000Y-94920000D03*
%TD*%
D11*
%TO.C,D25*%
X288350000Y-67000000D03*
X291650000Y-67000000D03*
%TD*%
%TO.C,D32*%
X250350000Y-48000000D03*
X253650000Y-48000000D03*
%TD*%
%TO.C,D1*%
X98350000Y-105000000D03*
X101650000Y-105000000D03*
%TD*%
D10*
%TO.C,S7*%
X130915000Y-78460000D03*
X143842000Y-75920000D03*
%TD*%
D11*
%TO.C,D21*%
X307350000Y-86000000D03*
X310650000Y-86000000D03*
%TD*%
%TO.C,D13*%
X174350000Y-86000000D03*
X177650000Y-86000000D03*
%TD*%
%TO.C,D3*%
X98350000Y-67000000D03*
X101650000Y-67000000D03*
%TD*%
D10*
%TO.C,S32*%
X244915000Y-40460000D03*
X257842000Y-37920000D03*
%TD*%
%TO.C,S11*%
X149915000Y-59460000D03*
X162842000Y-56920000D03*
%TD*%
D11*
%TO.C,D16*%
X174350000Y-105000000D03*
X177650000Y-105000000D03*
%TD*%
D10*
%TO.C,S33*%
X244915000Y-97460000D03*
X257842000Y-94920000D03*
%TD*%
%TO.C,S27*%
X263915000Y-78460000D03*
X276842000Y-75920000D03*
%TD*%
%TO.C,S8*%
X130915000Y-59460000D03*
X143842000Y-56920000D03*
%TD*%
D11*
%TO.C,D12*%
X155350000Y-48000000D03*
X158650000Y-48000000D03*
%TD*%
%TO.C,D15*%
X174350000Y-48000000D03*
X177650000Y-48000000D03*
%TD*%
D10*
%TO.C,S17*%
X187915000Y-97460000D03*
X200842000Y-94920000D03*
%TD*%
%TO.C,S31*%
X244915000Y-59460000D03*
X257842000Y-56920000D03*
%TD*%
D11*
%TO.C,D2*%
X98350000Y-86000000D03*
X101650000Y-86000000D03*
%TD*%
D10*
%TO.C,S3*%
X92915000Y-59460000D03*
X105842000Y-56920000D03*
%TD*%
D11*
%TO.C,D4*%
X117350000Y-86000000D03*
X120650000Y-86000000D03*
%TD*%
M02*
