%TF.GenerationSoftware,KiCad,Pcbnew,9.0.1*%
%TF.CreationDate,2025-05-09T00:25:46+02:00*%
%TF.ProjectId,cmrk,636d726b-2e6b-4696-9361-645f70636258,v1.0.0*%
%TF.SameCoordinates,Original*%
%TF.FileFunction,Copper,L2,Bot*%
%TF.FilePolarity,Positive*%
%FSLAX46Y46*%
G04 Gerber Fmt 4.6, Leading zero omitted, Abs format (unit mm)*
G04 Created by KiCad (PCBNEW 9.0.1) date 2025-05-09 00:25:46*
%MOMM*%
%LPD*%
G01*
G04 APERTURE LIST*
%TA.AperFunction,SMDPad,CuDef*%
%ADD10R,2.550000X2.500000*%
%TD*%
%TA.AperFunction,ComponentPad*%
%ADD11R,1.778000X1.778000*%
%TD*%
%TA.AperFunction,SMDPad,CuDef*%
%ADD12R,0.900000X1.200000*%
%TD*%
%TA.AperFunction,ComponentPad*%
%ADD13C,1.905000*%
%TD*%
%TA.AperFunction,ComponentPad*%
%ADD14R,1.752600X1.752600*%
%TD*%
%TA.AperFunction,ComponentPad*%
%ADD15C,1.752600*%
%TD*%
%TA.AperFunction,Conductor*%
%ADD16C,0.250000*%
%TD*%
G04 APERTURE END LIST*
D10*
%TO.P,S22,1*%
%TO.N,P0*%
X301915000Y-59460000D03*
%TO.P,S22,2*%
%TO.N,P16*%
X314842000Y-56920000D03*
%TD*%
%TO.P,S19,1*%
%TO.N,P0*%
X320915000Y-78460000D03*
%TO.P,S19,2*%
%TO.N,P14*%
X333842000Y-75920000D03*
%TD*%
%TO.P,S18,1*%
%TO.N,P4*%
X320915000Y-97460000D03*
%TO.P,S18,2*%
%TO.N,P14*%
X333842000Y-94920000D03*
%TD*%
D11*
%TO.P,D22,1*%
%TO.N,P0*%
X305190000Y-67000000D03*
D12*
X307350000Y-67000000D03*
%TO.P,D22,2*%
%TO.N,mirror_ring_home*%
X310650000Y-67000000D03*
D13*
X312810000Y-67000000D03*
%TD*%
D11*
%TO.P,D10,1*%
%TO.N,P19*%
X153190000Y-86000000D03*
D12*
X155350000Y-86000000D03*
%TO.P,D10,2*%
%TO.N,index_bottom*%
X158650000Y-86000000D03*
D13*
X160810000Y-86000000D03*
%TD*%
D11*
%TO.P,D24,1*%
%TO.N,P4*%
X286190000Y-86000000D03*
D12*
X288350000Y-86000000D03*
%TO.P,D24,2*%
%TO.N,mirror_middle_bottom*%
X291650000Y-86000000D03*
D13*
X293810000Y-86000000D03*
%TD*%
D11*
%TO.P,D9,1*%
%TO.N,P21*%
X134190000Y-48000000D03*
D12*
X136350000Y-48000000D03*
%TO.P,D9,2*%
%TO.N,middle_top*%
X139650000Y-48000000D03*
D13*
X141810000Y-48000000D03*
%TD*%
D11*
%TO.P,D20,1*%
%TO.N,P1*%
X324190000Y-67000000D03*
D12*
X326350000Y-67000000D03*
%TO.P,D20,2*%
%TO.N,mirror_pinky_top*%
X329650000Y-67000000D03*
D13*
X331810000Y-67000000D03*
%TD*%
D11*
%TO.P,D33,1*%
%TO.N,P5*%
X248190000Y-105000000D03*
D12*
X250350000Y-105000000D03*
%TO.P,D33,2*%
%TO.N,mirror_tucky_cluster*%
X253650000Y-105000000D03*
D13*
X255810000Y-105000000D03*
%TD*%
D10*
%TO.P,S10,1*%
%TO.N,P19*%
X149915000Y-78460000D03*
%TO.P,S10,2*%
%TO.N,P7*%
X162842000Y-75920000D03*
%TD*%
D11*
%TO.P,D29,1*%
%TO.N,P1*%
X267190000Y-48000000D03*
D12*
X269350000Y-48000000D03*
%TO.P,D29,2*%
%TO.N,mirror_index_top*%
X272650000Y-48000000D03*
D13*
X274810000Y-48000000D03*
%TD*%
D10*
%TO.P,S34,1*%
%TO.N,P5*%
X225915000Y-97460000D03*
%TO.P,S34,2*%
%TO.N,P8*%
X238842000Y-94920000D03*
%TD*%
%TO.P,S6,1*%
%TO.N,P21*%
X111915000Y-40460000D03*
%TO.P,S6,2*%
%TO.N,P16*%
X124842000Y-37920000D03*
%TD*%
%TO.P,S9,1*%
%TO.N,P21*%
X130915000Y-40460000D03*
%TO.P,S9,2*%
%TO.N,P10*%
X143842000Y-37920000D03*
%TD*%
D11*
%TO.P,D18,1*%
%TO.N,P4*%
X324190000Y-105000000D03*
D12*
X326350000Y-105000000D03*
%TO.P,D18,2*%
%TO.N,mirror_pinky_bottom*%
X329650000Y-105000000D03*
D13*
X331810000Y-105000000D03*
%TD*%
D10*
%TO.P,S23,1*%
%TO.N,P1*%
X301915000Y-40460000D03*
%TO.P,S23,2*%
%TO.N,P16*%
X314842000Y-37920000D03*
%TD*%
D11*
%TO.P,D23,1*%
%TO.N,P1*%
X305190000Y-48000000D03*
D12*
X307350000Y-48000000D03*
%TO.P,D23,2*%
%TO.N,mirror_ring_top*%
X310650000Y-48000000D03*
D13*
X312810000Y-48000000D03*
%TD*%
D10*
%TO.P,S21,1*%
%TO.N,P4*%
X301915000Y-78460000D03*
%TO.P,S21,2*%
%TO.N,P16*%
X314842000Y-75920000D03*
%TD*%
D11*
%TO.P,D5,1*%
%TO.N,P20*%
X115190000Y-67000000D03*
D12*
X117350000Y-67000000D03*
%TO.P,D5,2*%
%TO.N,ring_home*%
X120650000Y-67000000D03*
D13*
X122810000Y-67000000D03*
%TD*%
D11*
%TO.P,D26,1*%
%TO.N,P1*%
X286190000Y-48000000D03*
D12*
X288350000Y-48000000D03*
%TO.P,D26,2*%
%TO.N,mirror_middle_top*%
X291650000Y-48000000D03*
D13*
X293810000Y-48000000D03*
%TD*%
D10*
%TO.P,S13,1*%
%TO.N,P19*%
X168915000Y-78460000D03*
%TO.P,S13,2*%
%TO.N,P8*%
X181842000Y-75920000D03*
%TD*%
%TO.P,S26,1*%
%TO.N,P1*%
X282915000Y-40460000D03*
%TO.P,S26,2*%
%TO.N,P10*%
X295842000Y-37920000D03*
%TD*%
%TO.P,S25,1*%
%TO.N,P0*%
X282915000Y-59460000D03*
%TO.P,S25,2*%
%TO.N,P10*%
X295842000Y-56920000D03*
%TD*%
D11*
%TO.P,D31,1*%
%TO.N,P0*%
X248190000Y-67000000D03*
D12*
X250350000Y-67000000D03*
%TO.P,D31,2*%
%TO.N,mirror_inner_home*%
X253650000Y-67000000D03*
D13*
X255810000Y-67000000D03*
%TD*%
D10*
%TO.P,S5,1*%
%TO.N,P20*%
X111915000Y-59460000D03*
%TO.P,S5,2*%
%TO.N,P16*%
X124842000Y-56920000D03*
%TD*%
%TO.P,S2,1*%
%TO.N,P20*%
X92915000Y-78460000D03*
%TO.P,S2,2*%
%TO.N,P14*%
X105842000Y-75920000D03*
%TD*%
D11*
%TO.P,D17,1*%
%TO.N,P18*%
X191190000Y-105000000D03*
D12*
X193350000Y-105000000D03*
%TO.P,D17,2*%
%TO.N,reachy_cluster*%
X196650000Y-105000000D03*
D13*
X198810000Y-105000000D03*
%TD*%
D11*
%TO.P,D14,1*%
%TO.N,P20*%
X172190000Y-67000000D03*
D12*
X174350000Y-67000000D03*
%TO.P,D14,2*%
%TO.N,inner_home*%
X177650000Y-67000000D03*
D13*
X179810000Y-67000000D03*
%TD*%
D10*
%TO.P,S28,1*%
%TO.N,P0*%
X263915000Y-59460000D03*
%TO.P,S28,2*%
%TO.N,P7*%
X276842000Y-56920000D03*
%TD*%
%TO.P,S15,1*%
%TO.N,P21*%
X168915000Y-40460000D03*
%TO.P,S15,2*%
%TO.N,P8*%
X181842000Y-37920000D03*
%TD*%
%TO.P,S1,1*%
%TO.N,P19*%
X92915000Y-97460000D03*
%TO.P,S1,2*%
%TO.N,P14*%
X105842000Y-94920000D03*
%TD*%
D11*
%TO.P,D19,1*%
%TO.N,P0*%
X324190000Y-86000000D03*
D12*
X326350000Y-86000000D03*
%TO.P,D19,2*%
%TO.N,mirror_pinky_home*%
X329650000Y-86000000D03*
D13*
X331810000Y-86000000D03*
%TD*%
D10*
%TO.P,S12,1*%
%TO.N,P21*%
X149915000Y-40460000D03*
%TO.P,S12,2*%
%TO.N,P7*%
X162842000Y-37920000D03*
%TD*%
D11*
%TO.P,D28,1*%
%TO.N,P0*%
X267190000Y-67000000D03*
D12*
X269350000Y-67000000D03*
%TO.P,D28,2*%
%TO.N,mirror_index_home*%
X272650000Y-67000000D03*
D13*
X274810000Y-67000000D03*
%TD*%
D10*
%TO.P,S29,1*%
%TO.N,P1*%
X263915000Y-40460000D03*
%TO.P,S29,2*%
%TO.N,P7*%
X276842000Y-37920000D03*
%TD*%
%TO.P,S14,1*%
%TO.N,P20*%
X168915000Y-59460000D03*
%TO.P,S14,2*%
%TO.N,P8*%
X181842000Y-56920000D03*
%TD*%
%TO.P,S24,1*%
%TO.N,P4*%
X282915000Y-78460000D03*
%TO.P,S24,2*%
%TO.N,P10*%
X295842000Y-75920000D03*
%TD*%
%TO.P,S20,1*%
%TO.N,P1*%
X320915000Y-59460000D03*
%TO.P,S20,2*%
%TO.N,P14*%
X333842000Y-56920000D03*
%TD*%
D11*
%TO.P,D34,1*%
%TO.N,P5*%
X229190000Y-105000000D03*
D12*
X231350000Y-105000000D03*
%TO.P,D34,2*%
%TO.N,mirror_reachy_cluster*%
X234650000Y-105000000D03*
D13*
X236810000Y-105000000D03*
%TD*%
D11*
%TO.P,D27,1*%
%TO.N,P4*%
X267190000Y-86000000D03*
D12*
X269350000Y-86000000D03*
%TO.P,D27,2*%
%TO.N,mirror_index_bottom*%
X272650000Y-86000000D03*
D13*
X274810000Y-86000000D03*
%TD*%
D11*
%TO.P,D6,1*%
%TO.N,P21*%
X115190000Y-48000000D03*
D12*
X117350000Y-48000000D03*
%TO.P,D6,2*%
%TO.N,ring_top*%
X120650000Y-48000000D03*
D13*
X122810000Y-48000000D03*
%TD*%
D11*
%TO.P,D8,1*%
%TO.N,P20*%
X134190000Y-67000000D03*
D12*
X136350000Y-67000000D03*
%TO.P,D8,2*%
%TO.N,middle_home*%
X139650000Y-67000000D03*
D13*
X141810000Y-67000000D03*
%TD*%
D10*
%TO.P,S4,1*%
%TO.N,P19*%
X111915000Y-78460000D03*
%TO.P,S4,2*%
%TO.N,P16*%
X124842000Y-75920000D03*
%TD*%
D11*
%TO.P,D30,1*%
%TO.N,P4*%
X248190000Y-86000000D03*
D12*
X250350000Y-86000000D03*
%TO.P,D30,2*%
%TO.N,mirror_inner_bottom*%
X253650000Y-86000000D03*
D13*
X255810000Y-86000000D03*
%TD*%
D11*
%TO.P,D11,1*%
%TO.N,P20*%
X153190000Y-67000000D03*
D12*
X155350000Y-67000000D03*
%TO.P,D11,2*%
%TO.N,index_home*%
X158650000Y-67000000D03*
D13*
X160810000Y-67000000D03*
%TD*%
D10*
%TO.P,S30,1*%
%TO.N,P4*%
X244915000Y-78460000D03*
%TO.P,S30,2*%
%TO.N,P8*%
X257842000Y-75920000D03*
%TD*%
D11*
%TO.P,D7,1*%
%TO.N,P19*%
X134190000Y-86000000D03*
D12*
X136350000Y-86000000D03*
%TO.P,D7,2*%
%TO.N,middle_bottom*%
X139650000Y-86000000D03*
D13*
X141810000Y-86000000D03*
%TD*%
D10*
%TO.P,S16,1*%
%TO.N,P18*%
X168915000Y-97460000D03*
%TO.P,S16,2*%
%TO.N,P7*%
X181842000Y-94920000D03*
%TD*%
D11*
%TO.P,D25,1*%
%TO.N,P0*%
X286190000Y-67000000D03*
D12*
X288350000Y-67000000D03*
%TO.P,D25,2*%
%TO.N,mirror_middle_home*%
X291650000Y-67000000D03*
D13*
X293810000Y-67000000D03*
%TD*%
D11*
%TO.P,D32,1*%
%TO.N,P1*%
X248190000Y-48000000D03*
D12*
X250350000Y-48000000D03*
%TO.P,D32,2*%
%TO.N,mirror_inner_top*%
X253650000Y-48000000D03*
D13*
X255810000Y-48000000D03*
%TD*%
D14*
%TO.P,MCU1,1*%
%TO.N,RAW*%
X206380000Y-51430000D03*
D15*
%TO.P,MCU1,2*%
%TO.N,GND*%
X206380000Y-53970000D03*
%TO.P,MCU1,3*%
%TO.N,RST*%
X206380000Y-56510000D03*
%TO.P,MCU1,4*%
%TO.N,VCC*%
X206380000Y-59050000D03*
%TO.P,MCU1,5*%
%TO.N,P21*%
X206380000Y-61590000D03*
%TO.P,MCU1,6*%
%TO.N,P20*%
X206380000Y-64130000D03*
%TO.P,MCU1,7*%
%TO.N,P19*%
X206380000Y-66670000D03*
%TO.P,MCU1,8*%
%TO.N,P18*%
X206380000Y-69210000D03*
%TO.P,MCU1,9*%
%TO.N,P15*%
X206380000Y-71750000D03*
%TO.P,MCU1,10*%
%TO.N,P14*%
X206380000Y-74290000D03*
%TO.P,MCU1,11*%
%TO.N,P16*%
X206380000Y-76830000D03*
%TO.P,MCU1,12*%
%TO.N,P10*%
X206380000Y-79370000D03*
%TO.P,MCU1,13*%
%TO.N,P1*%
X221620000Y-51430000D03*
%TO.P,MCU1,14*%
%TO.N,P0*%
X221620000Y-53970000D03*
%TO.P,MCU1,15*%
%TO.N,GND*%
X221620000Y-56510000D03*
%TO.P,MCU1,16*%
X221620000Y-59050000D03*
%TO.P,MCU1,17*%
%TO.N,P2*%
X221620000Y-61590000D03*
%TO.P,MCU1,18*%
%TO.N,P3*%
X221620000Y-64130000D03*
%TO.P,MCU1,19*%
%TO.N,P4*%
X221620000Y-66670000D03*
%TO.P,MCU1,20*%
%TO.N,P5*%
X221620000Y-69210000D03*
%TO.P,MCU1,21*%
%TO.N,P6*%
X221620000Y-71750000D03*
%TO.P,MCU1,22*%
%TO.N,P7*%
X221620000Y-74290000D03*
%TO.P,MCU1,23*%
%TO.N,P8*%
X221620000Y-76830000D03*
%TO.P,MCU1,24*%
%TO.N,P9*%
X221620000Y-79370000D03*
%TD*%
D11*
%TO.P,D1,1*%
%TO.N,P19*%
X96190000Y-105000000D03*
D12*
X98350000Y-105000000D03*
%TO.P,D1,2*%
%TO.N,pinky_bottom*%
X101650000Y-105000000D03*
D13*
X103810000Y-105000000D03*
%TD*%
D10*
%TO.P,S7,1*%
%TO.N,P19*%
X130915000Y-78460000D03*
%TO.P,S7,2*%
%TO.N,P10*%
X143842000Y-75920000D03*
%TD*%
D11*
%TO.P,D21,1*%
%TO.N,P4*%
X305190000Y-86000000D03*
D12*
X307350000Y-86000000D03*
%TO.P,D21,2*%
%TO.N,mirror_ring_bottom*%
X310650000Y-86000000D03*
D13*
X312810000Y-86000000D03*
%TD*%
D11*
%TO.P,D13,1*%
%TO.N,P19*%
X172190000Y-86000000D03*
D12*
X174350000Y-86000000D03*
%TO.P,D13,2*%
%TO.N,inner_bottom*%
X177650000Y-86000000D03*
D13*
X179810000Y-86000000D03*
%TD*%
D11*
%TO.P,D3,1*%
%TO.N,P21*%
X96190000Y-67000000D03*
D12*
X98350000Y-67000000D03*
%TO.P,D3,2*%
%TO.N,pinky_top*%
X101650000Y-67000000D03*
D13*
X103810000Y-67000000D03*
%TD*%
D10*
%TO.P,S32,1*%
%TO.N,P1*%
X244915000Y-40460000D03*
%TO.P,S32,2*%
%TO.N,P8*%
X257842000Y-37920000D03*
%TD*%
%TO.P,S11,1*%
%TO.N,P20*%
X149915000Y-59460000D03*
%TO.P,S11,2*%
%TO.N,P7*%
X162842000Y-56920000D03*
%TD*%
D11*
%TO.P,D16,1*%
%TO.N,P18*%
X172190000Y-105000000D03*
D12*
X174350000Y-105000000D03*
%TO.P,D16,2*%
%TO.N,tucky_cluster*%
X177650000Y-105000000D03*
D13*
X179810000Y-105000000D03*
%TD*%
D10*
%TO.P,S33,1*%
%TO.N,P5*%
X244915000Y-97460000D03*
%TO.P,S33,2*%
%TO.N,P7*%
X257842000Y-94920000D03*
%TD*%
%TO.P,S27,1*%
%TO.N,P4*%
X263915000Y-78460000D03*
%TO.P,S27,2*%
%TO.N,P7*%
X276842000Y-75920000D03*
%TD*%
%TO.P,S8,1*%
%TO.N,P20*%
X130915000Y-59460000D03*
%TO.P,S8,2*%
%TO.N,P10*%
X143842000Y-56920000D03*
%TD*%
D11*
%TO.P,D12,1*%
%TO.N,P21*%
X153190000Y-48000000D03*
D12*
X155350000Y-48000000D03*
%TO.P,D12,2*%
%TO.N,index_top*%
X158650000Y-48000000D03*
D13*
X160810000Y-48000000D03*
%TD*%
D11*
%TO.P,D15,1*%
%TO.N,P21*%
X172190000Y-48000000D03*
D12*
X174350000Y-48000000D03*
%TO.P,D15,2*%
%TO.N,inner_top*%
X177650000Y-48000000D03*
D13*
X179810000Y-48000000D03*
%TD*%
D10*
%TO.P,S17,1*%
%TO.N,P18*%
X187915000Y-97460000D03*
%TO.P,S17,2*%
%TO.N,P8*%
X200842000Y-94920000D03*
%TD*%
%TO.P,S31,1*%
%TO.N,P0*%
X244915000Y-59460000D03*
%TO.P,S31,2*%
%TO.N,P8*%
X257842000Y-56920000D03*
%TD*%
D11*
%TO.P,D2,1*%
%TO.N,P20*%
X96190000Y-86000000D03*
D12*
X98350000Y-86000000D03*
%TO.P,D2,2*%
%TO.N,pinky_home*%
X101650000Y-86000000D03*
D13*
X103810000Y-86000000D03*
%TD*%
D10*
%TO.P,S3,1*%
%TO.N,P21*%
X92915000Y-59460000D03*
%TO.P,S3,2*%
%TO.N,P14*%
X105842000Y-56920000D03*
%TD*%
D11*
%TO.P,D4,1*%
%TO.N,P19*%
X115190000Y-86000000D03*
D12*
X117350000Y-86000000D03*
%TO.P,D4,2*%
%TO.N,ring_bottom*%
X120650000Y-86000000D03*
D13*
X122810000Y-86000000D03*
%TD*%
D16*
%TO.N,P19*%
X172190000Y-86000000D02*
X168915000Y-82725000D01*
X168915000Y-82725000D02*
X168915000Y-78460000D01*
X134190000Y-86000000D02*
X136350000Y-86000000D01*
X92915000Y-101725000D02*
X92915000Y-97460000D01*
X172190000Y-86000000D02*
X174350000Y-86000000D01*
X153190000Y-86000000D02*
X155350000Y-86000000D01*
X130915000Y-82725000D02*
X130915000Y-78460000D01*
X96190000Y-105000000D02*
X98350000Y-105000000D01*
X115190000Y-86000000D02*
X117350000Y-86000000D01*
X111915000Y-82725000D02*
X111915000Y-78460000D01*
X149915000Y-82725000D02*
X149915000Y-78460000D01*
X134190000Y-86000000D02*
X130915000Y-82725000D01*
X96190000Y-105000000D02*
X92915000Y-101725000D01*
X115190000Y-86000000D02*
X111915000Y-82725000D01*
X153190000Y-86000000D02*
X149915000Y-82725000D01*
%TO.N,P14*%
X105842000Y-75920000D02*
X106306900Y-75455100D01*
X105842000Y-94920000D02*
X106306900Y-94455100D01*
X333842000Y-56920000D02*
X334306900Y-57384900D01*
X106306900Y-75455100D02*
X106306900Y-57384900D01*
X195000000Y-34500000D02*
X204000000Y-43500000D01*
X224224380Y-100500000D02*
X223098000Y-99373620D01*
X256775620Y-108000000D02*
X228224380Y-108000000D01*
X334306900Y-94455100D02*
X334306900Y-76384900D01*
X204500000Y-43500000D02*
X204549000Y-43549000D01*
X109500000Y-34500000D02*
X195000000Y-34500000D01*
X105842000Y-56920000D02*
X109500000Y-53262000D01*
X204549000Y-43549000D02*
X223000000Y-43549000D01*
X260902000Y-91873620D02*
X260902000Y-103873620D01*
X317000000Y-36500000D02*
X317000000Y-39000000D01*
X331422000Y-54500000D02*
X333842000Y-56920000D01*
X260902000Y-103873620D02*
X256775620Y-108000000D01*
X334306900Y-75455100D02*
X333842000Y-75920000D01*
X228224380Y-108000000D02*
X224500000Y-104275620D01*
X312500000Y-34500000D02*
X314000000Y-36000000D01*
X223000000Y-43549000D02*
X232049000Y-34500000D01*
X204726700Y-75943300D02*
X206380000Y-74290000D01*
X232049000Y-34500000D02*
X312500000Y-34500000D01*
X334306900Y-76384900D02*
X333842000Y-75920000D01*
X204726700Y-80364510D02*
X204726700Y-75943300D01*
X204000000Y-43500000D02*
X204500000Y-43500000D01*
X333842000Y-94920000D02*
X334306900Y-94455100D01*
X106306900Y-76384900D02*
X105842000Y-75920000D01*
X222049000Y-90462430D02*
X222049000Y-81951000D01*
X223098000Y-91511430D02*
X222049000Y-90462430D01*
X106306900Y-94455100D02*
X106306900Y-76384900D01*
X264275620Y-88500000D02*
X260902000Y-91873620D01*
X333842000Y-88842000D02*
X333500000Y-88500000D01*
X224500000Y-104275620D02*
X224500000Y-100500000D01*
X206313190Y-81951000D02*
X204726700Y-80364510D01*
X109500000Y-53262000D02*
X109500000Y-34500000D01*
X106306900Y-57384900D02*
X105842000Y-56920000D01*
X333500000Y-88500000D02*
X264275620Y-88500000D01*
X317000000Y-39000000D02*
X316000000Y-40000000D01*
X223098000Y-99373620D02*
X223098000Y-91511430D01*
X316000000Y-40000000D02*
X316000000Y-54500000D01*
X316000000Y-54500000D02*
X331422000Y-54500000D01*
X314000000Y-36000000D02*
X316500000Y-36000000D01*
X224500000Y-100500000D02*
X224224380Y-100500000D01*
X222049000Y-81951000D02*
X206313190Y-81951000D01*
X316500000Y-36000000D02*
X317000000Y-36500000D01*
X333842000Y-94920000D02*
X333842000Y-88842000D01*
X334306900Y-57384900D02*
X334306900Y-75455100D01*
%TO.N,P20*%
X153190000Y-67000000D02*
X155350000Y-67000000D01*
X149915000Y-63725000D02*
X149915000Y-59460000D01*
X92915000Y-82725000D02*
X92915000Y-78460000D01*
X115190000Y-67000000D02*
X111915000Y-63725000D01*
X168915000Y-63725000D02*
X168915000Y-59460000D01*
X130915000Y-63725000D02*
X130915000Y-59460000D01*
X98350000Y-86000000D02*
X96190000Y-86000000D01*
X136350000Y-67000000D02*
X134190000Y-67000000D01*
X96190000Y-86000000D02*
X92915000Y-82725000D01*
X172190000Y-67000000D02*
X174350000Y-67000000D01*
X115190000Y-67000000D02*
X117350000Y-67000000D01*
X172190000Y-67000000D02*
X168915000Y-63725000D01*
X153190000Y-67000000D02*
X149915000Y-63725000D01*
X134190000Y-67000000D02*
X130915000Y-63725000D01*
X111915000Y-63725000D02*
X111915000Y-59460000D01*
%TO.N,P21*%
X96190000Y-67000000D02*
X92915000Y-63725000D01*
X92915000Y-63725000D02*
X92915000Y-59460000D01*
X153190000Y-48000000D02*
X149915000Y-44725000D01*
X172190000Y-48000000D02*
X174350000Y-48000000D01*
X149915000Y-44725000D02*
X149915000Y-40460000D01*
X136350000Y-48000000D02*
X134190000Y-48000000D01*
X111915000Y-44725000D02*
X111915000Y-40460000D01*
X115190000Y-48000000D02*
X117350000Y-48000000D01*
X155350000Y-48000000D02*
X153190000Y-48000000D01*
X98350000Y-67000000D02*
X96190000Y-67000000D01*
X115190000Y-48000000D02*
X111915000Y-44725000D01*
X172190000Y-48000000D02*
X168915000Y-44725000D01*
X130915000Y-44725000D02*
X130915000Y-40460000D01*
X168915000Y-44725000D02*
X168915000Y-40460000D01*
X134190000Y-48000000D02*
X130915000Y-44725000D01*
%TO.N,P16*%
X222500000Y-81500000D02*
X206500000Y-81500000D01*
X124842000Y-37920000D02*
X127762000Y-35000000D01*
X315306900Y-38384900D02*
X315306900Y-56455100D01*
X314842000Y-37920000D02*
X315306900Y-38384900D01*
X314842000Y-75920000D02*
X315500000Y-76578000D01*
X260451000Y-91686810D02*
X260451000Y-103686810D01*
X194500000Y-35000000D02*
X203500000Y-44000000D01*
X205177700Y-78032300D02*
X206380000Y-76830000D01*
X264137810Y-88000000D02*
X260451000Y-91686810D01*
X203500000Y-44000000D02*
X223500000Y-44000000D01*
X260451000Y-103686810D02*
X256637810Y-107500000D01*
X205177700Y-80177700D02*
X205177700Y-78032300D01*
X206500000Y-81500000D02*
X205177700Y-80177700D01*
X228362190Y-107500000D02*
X225013000Y-104150810D01*
X125306900Y-38384900D02*
X125306900Y-56455100D01*
X224313190Y-99951000D02*
X223549000Y-99186810D01*
X311922000Y-35000000D02*
X314842000Y-37920000D01*
X127762000Y-35000000D02*
X194500000Y-35000000D01*
X315500000Y-88000000D02*
X264137810Y-88000000D01*
X315306900Y-57384900D02*
X315306900Y-75455100D01*
X223500000Y-44000000D02*
X232500000Y-35000000D01*
X232500000Y-35000000D02*
X311922000Y-35000000D01*
X124842000Y-75920000D02*
X125306900Y-75455100D01*
X125306900Y-57384900D02*
X124842000Y-56920000D01*
X315306900Y-56455100D02*
X314842000Y-56920000D01*
X125306900Y-75455100D02*
X125306900Y-57384900D01*
X315306900Y-75455100D02*
X314842000Y-75920000D01*
X315500000Y-76578000D02*
X315500000Y-88000000D01*
X256637810Y-107500000D02*
X228362190Y-107500000D01*
X225013000Y-104150810D02*
X225013000Y-99951000D01*
X223549000Y-91324620D02*
X222500000Y-90275620D01*
X222500000Y-90275620D02*
X222500000Y-81500000D01*
X125306900Y-56455100D02*
X124842000Y-56920000D01*
X314842000Y-56920000D02*
X315306900Y-57384900D01*
X124842000Y-37920000D02*
X125306900Y-38384900D01*
X223549000Y-99186810D02*
X223549000Y-91324620D01*
X225013000Y-99951000D02*
X224313190Y-99951000D01*
%TO.N,P10*%
X295842000Y-37920000D02*
X296306900Y-38384900D01*
X264000000Y-87500000D02*
X296500000Y-87500000D01*
X228500000Y-107000000D02*
X256500000Y-107000000D01*
X296306900Y-56455100D02*
X295842000Y-56920000D01*
X203000000Y-44500000D02*
X224000000Y-44500000D01*
X143842000Y-56920000D02*
X144306900Y-56455100D01*
X144306900Y-57384900D02*
X143842000Y-56920000D01*
X206760000Y-81000000D02*
X223049000Y-81000000D01*
X296500000Y-57578000D02*
X296500000Y-75262000D01*
X296500000Y-75262000D02*
X295842000Y-75920000D01*
X295842000Y-56920000D02*
X296500000Y-57578000D01*
X296500000Y-76578000D02*
X295842000Y-75920000D01*
X224500000Y-99500000D02*
X225464000Y-99500000D01*
X223049000Y-90186810D02*
X224000000Y-91137810D01*
X225464000Y-103964000D02*
X228500000Y-107000000D01*
X146262000Y-35500000D02*
X194000000Y-35500000D01*
X143842000Y-75920000D02*
X144306900Y-75455100D01*
X233000000Y-35500000D02*
X293422000Y-35500000D01*
X296500000Y-87500000D02*
X296500000Y-76578000D01*
X260000000Y-91500000D02*
X264000000Y-87500000D01*
X260000000Y-103500000D02*
X260000000Y-91500000D01*
X144306900Y-38384900D02*
X143842000Y-37920000D01*
X293422000Y-35500000D02*
X295842000Y-37920000D01*
X223049000Y-81000000D02*
X223049000Y-90186810D01*
X225464000Y-99500000D02*
X225464000Y-103964000D01*
X224000000Y-44500000D02*
X233000000Y-35500000D01*
X144306900Y-75455100D02*
X144306900Y-57384900D01*
X206380000Y-80620000D02*
X206760000Y-81000000D01*
X296306900Y-38384900D02*
X296306900Y-56455100D01*
X144306900Y-56455100D02*
X144306900Y-38384900D01*
X143842000Y-37920000D02*
X146262000Y-35500000D01*
X224000000Y-99000000D02*
X224500000Y-99500000D01*
X194000000Y-35500000D02*
X203000000Y-44500000D01*
X256500000Y-107000000D02*
X260000000Y-103500000D01*
X224000000Y-91137810D02*
X224000000Y-99000000D01*
X206380000Y-79370000D02*
X206380000Y-80620000D01*
%TO.N,P7*%
X203000000Y-93500000D02*
X201500000Y-92000000D01*
X201500000Y-92000000D02*
X184500000Y-92000000D01*
X192500000Y-37000000D02*
X201500000Y-46000000D01*
X224500000Y-45000000D02*
X233456000Y-36044000D01*
X276842000Y-37920000D02*
X277306900Y-38384900D01*
X257842000Y-91658000D02*
X257842000Y-94920000D01*
X181842000Y-94920000D02*
X194420000Y-94920000D01*
X203000000Y-97000000D02*
X203000000Y-93500000D01*
X260000000Y-75500000D02*
X260000000Y-76500000D01*
X276842000Y-75920000D02*
X274966000Y-74044000D01*
X202500000Y-45000000D02*
X224500000Y-45000000D01*
X276842000Y-56920000D02*
X277306900Y-57384900D01*
X274966000Y-74044000D02*
X261456000Y-74044000D01*
X277306900Y-57384900D02*
X277306900Y-75455100D01*
X223500000Y-72410000D02*
X221620000Y-74290000D01*
X164762000Y-36000000D02*
X193500000Y-36000000D01*
X164500000Y-39578000D02*
X164500000Y-55262000D01*
X194420000Y-94920000D02*
X196500000Y-97000000D01*
X162842000Y-37920000D02*
X164762000Y-36000000D01*
X164500000Y-55262000D02*
X162842000Y-56920000D01*
X223500000Y-46000000D02*
X223500000Y-72410000D01*
X277306900Y-38384900D02*
X277306900Y-56455100D01*
X261500000Y-78000000D02*
X261500000Y-88000000D01*
X196500000Y-97000000D02*
X203000000Y-97000000D01*
X260000000Y-76500000D02*
X261500000Y-78000000D01*
X164131000Y-74631000D02*
X164131000Y-58209000D01*
X162842000Y-37920000D02*
X164500000Y-39578000D01*
X261456000Y-74044000D02*
X260000000Y-75500000D01*
X277306900Y-56455100D02*
X276842000Y-56920000D01*
X184500000Y-37000000D02*
X192500000Y-37000000D01*
X277306900Y-75455100D02*
X276842000Y-75920000D01*
X162842000Y-75920000D02*
X166500000Y-79578000D01*
X233456000Y-36044000D02*
X274966000Y-36044000D01*
X193500000Y-36000000D02*
X202500000Y-45000000D01*
X166500000Y-79578000D02*
X166500000Y-90000000D01*
X184500000Y-92000000D02*
X184500000Y-37000000D01*
X176922000Y-90000000D02*
X181842000Y-94920000D01*
X162842000Y-75920000D02*
X164131000Y-74631000D01*
X274966000Y-36044000D02*
X276842000Y-37920000D01*
X166500000Y-90000000D02*
X176922000Y-90000000D01*
X261500000Y-88000000D02*
X257842000Y-91658000D01*
X164131000Y-58209000D02*
X162842000Y-56920000D01*
X201500000Y-46000000D02*
X223500000Y-46000000D01*
%TO.N,P8*%
X182306900Y-56455100D02*
X182306900Y-38384900D01*
X260500000Y-78578000D02*
X260500000Y-87500000D01*
X181842000Y-56920000D02*
X182306900Y-57384900D01*
X243262000Y-90500000D02*
X238842000Y-94920000D01*
X258920000Y-37920000D02*
X257842000Y-37920000D01*
X260500000Y-59578000D02*
X257842000Y-56920000D01*
X260500000Y-54262000D02*
X260500000Y-39500000D01*
X260500000Y-87500000D02*
X257500000Y-90500000D01*
X202000000Y-45500000D02*
X224995550Y-45500000D01*
X181842000Y-75920000D02*
X181842000Y-78842000D01*
X257500000Y-90500000D02*
X243262000Y-90500000D01*
X234922000Y-91000000D02*
X238842000Y-94920000D01*
X184000000Y-81000000D02*
X184000000Y-92500000D01*
X257842000Y-40342000D02*
X257842000Y-37920000D01*
X238842000Y-94052000D02*
X238842000Y-94920000D01*
X223500000Y-78710000D02*
X223500000Y-90000000D01*
X257842000Y-75920000D02*
X258080000Y-75920000D01*
X198422000Y-92500000D02*
X200842000Y-94920000D01*
X260500000Y-39500000D02*
X258920000Y-37920000D01*
X249500000Y-36500000D02*
X253500000Y-40500000D01*
X233995550Y-36500000D02*
X249500000Y-36500000D01*
X257842000Y-75920000D02*
X260500000Y-78578000D01*
X183262000Y-36500000D02*
X193000000Y-36500000D01*
X258080000Y-75920000D02*
X260500000Y-73500000D01*
X193000000Y-36500000D02*
X202000000Y-45500000D01*
X184000000Y-92500000D02*
X198422000Y-92500000D01*
X260500000Y-73500000D02*
X260500000Y-59578000D01*
X182306900Y-75455100D02*
X181842000Y-75920000D01*
X182306900Y-57384900D02*
X182306900Y-75455100D01*
X181842000Y-56920000D02*
X182306900Y-56455100D01*
X181842000Y-37920000D02*
X183262000Y-36500000D01*
X223500000Y-90000000D02*
X224500000Y-91000000D01*
X257842000Y-56920000D02*
X260500000Y-54262000D01*
X221620000Y-76830000D02*
X223500000Y-78710000D01*
X253500000Y-40500000D02*
X257684000Y-40500000D01*
X181842000Y-78842000D02*
X184000000Y-81000000D01*
X224500000Y-91000000D02*
X234922000Y-91000000D01*
X257684000Y-40500000D02*
X257842000Y-40342000D01*
X224995550Y-45500000D02*
X233995550Y-36500000D01*
X182306900Y-38384900D02*
X181842000Y-37920000D01*
%TO.N,P18*%
X172190000Y-105000000D02*
X168915000Y-101725000D01*
X191190000Y-105000000D02*
X187915000Y-101725000D01*
X168915000Y-101725000D02*
X168915000Y-97460000D01*
X174350000Y-105000000D02*
X172190000Y-105000000D01*
X187915000Y-101725000D02*
X187915000Y-97460000D01*
X193350000Y-105000000D02*
X191190000Y-105000000D01*
%TO.N,P4*%
X324190000Y-105000000D02*
X326350000Y-105000000D01*
X248190000Y-86000000D02*
X250350000Y-86000000D01*
X263915000Y-78460000D02*
X263915000Y-82725000D01*
X305190000Y-86000000D02*
X307350000Y-86000000D01*
X320915000Y-97460000D02*
X320915000Y-101725000D01*
X320915000Y-101725000D02*
X324190000Y-105000000D01*
X263915000Y-82725000D02*
X267190000Y-86000000D01*
X267190000Y-86000000D02*
X269350000Y-86000000D01*
X301915000Y-82725000D02*
X301915000Y-78460000D01*
X282915000Y-82725000D02*
X282915000Y-78460000D01*
X244915000Y-82725000D02*
X244915000Y-78460000D01*
X248190000Y-86000000D02*
X244915000Y-82725000D01*
X286190000Y-86000000D02*
X282915000Y-82725000D01*
X305190000Y-86000000D02*
X301915000Y-82725000D01*
X286190000Y-86000000D02*
X288350000Y-86000000D01*
%TO.N,P0*%
X305190000Y-67000000D02*
X307350000Y-67000000D01*
X267190000Y-67000000D02*
X269350000Y-67000000D01*
X324190000Y-86000000D02*
X326350000Y-86000000D01*
X324190000Y-86000000D02*
X320915000Y-82725000D01*
X286190000Y-67000000D02*
X282915000Y-63725000D01*
X320915000Y-82725000D02*
X320915000Y-78460000D01*
X250350000Y-67000000D02*
X248190000Y-67000000D01*
X301915000Y-63725000D02*
X301915000Y-59460000D01*
X267190000Y-67000000D02*
X263915000Y-63725000D01*
X263915000Y-63725000D02*
X263915000Y-59460000D01*
X305190000Y-67000000D02*
X301915000Y-63725000D01*
X248190000Y-67000000D02*
X244915000Y-63725000D01*
X244915000Y-63725000D02*
X244915000Y-59460000D01*
X282915000Y-63725000D02*
X282915000Y-59460000D01*
X288350000Y-67000000D02*
X286190000Y-67000000D01*
%TO.N,P1*%
X305190000Y-48000000D02*
X307350000Y-48000000D01*
X320915000Y-63725000D02*
X320915000Y-59460000D01*
X244915000Y-40460000D02*
X244915000Y-44725000D01*
X288350000Y-48000000D02*
X286190000Y-48000000D01*
X244915000Y-44725000D02*
X248190000Y-48000000D01*
X282915000Y-44725000D02*
X282915000Y-40460000D01*
X267190000Y-48000000D02*
X263915000Y-44725000D01*
X301915000Y-44725000D02*
X301915000Y-40460000D01*
X263915000Y-44725000D02*
X263915000Y-40460000D01*
X248190000Y-48000000D02*
X250350000Y-48000000D01*
X305190000Y-48000000D02*
X301915000Y-44725000D01*
X286190000Y-48000000D02*
X282915000Y-44725000D01*
X267190000Y-48000000D02*
X269350000Y-48000000D01*
X324190000Y-67000000D02*
X320915000Y-63725000D01*
X326350000Y-67000000D02*
X324190000Y-67000000D01*
%TO.N,P5*%
X229190000Y-105000000D02*
X231350000Y-105000000D01*
X225915000Y-103777190D02*
X227137810Y-105000000D01*
X248190000Y-105000000D02*
X250350000Y-105000000D01*
X248190000Y-105000000D02*
X244915000Y-101725000D01*
X225915000Y-97460000D02*
X225915000Y-103777190D01*
X244915000Y-101725000D02*
X244915000Y-97460000D01*
X227137810Y-105000000D02*
X229190000Y-105000000D01*
%TO.N,pinky_bottom*%
X103810000Y-105000000D02*
X101650000Y-105000000D01*
%TO.N,pinky_home*%
X103810000Y-86000000D02*
X101650000Y-86000000D01*
%TO.N,pinky_top*%
X103810000Y-67000000D02*
X101650000Y-67000000D01*
%TO.N,ring_bottom*%
X122810000Y-86000000D02*
X120650000Y-86000000D01*
%TO.N,ring_home*%
X122810000Y-67000000D02*
X120650000Y-67000000D01*
%TO.N,ring_top*%
X120650000Y-48000000D02*
X122810000Y-48000000D01*
%TO.N,middle_bottom*%
X141810000Y-86000000D02*
X139650000Y-86000000D01*
%TO.N,middle_home*%
X141810000Y-67000000D02*
X139650000Y-67000000D01*
%TO.N,middle_top*%
X139650000Y-48000000D02*
X141810000Y-48000000D01*
%TO.N,index_bottom*%
X160810000Y-86000000D02*
X158650000Y-86000000D01*
%TO.N,index_home*%
X158650000Y-67000000D02*
X160810000Y-67000000D01*
%TO.N,index_top*%
X158650000Y-48000000D02*
X160810000Y-48000000D01*
%TO.N,inner_bottom*%
X179810000Y-86000000D02*
X177650000Y-86000000D01*
%TO.N,inner_home*%
X177650000Y-67000000D02*
X179810000Y-67000000D01*
%TO.N,inner_top*%
X179810000Y-48000000D02*
X177650000Y-48000000D01*
%TO.N,tucky_cluster*%
X179810000Y-105000000D02*
X177650000Y-105000000D01*
%TO.N,reachy_cluster*%
X198810000Y-105000000D02*
X196650000Y-105000000D01*
%TO.N,mirror_pinky_bottom*%
X329650000Y-105000000D02*
X331810000Y-105000000D01*
%TO.N,mirror_pinky_home*%
X329650000Y-86000000D02*
X331810000Y-86000000D01*
%TO.N,mirror_pinky_top*%
X329650000Y-67000000D02*
X331810000Y-67000000D01*
%TO.N,mirror_ring_bottom*%
X310650000Y-86000000D02*
X312810000Y-86000000D01*
%TO.N,mirror_ring_home*%
X310650000Y-67000000D02*
X312810000Y-67000000D01*
%TO.N,mirror_ring_top*%
X310650000Y-48000000D02*
X312810000Y-48000000D01*
%TO.N,mirror_middle_bottom*%
X291650000Y-86000000D02*
X293810000Y-86000000D01*
%TO.N,mirror_middle_home*%
X293810000Y-67000000D02*
X291650000Y-67000000D01*
%TO.N,mirror_middle_top*%
X291650000Y-48000000D02*
X293810000Y-48000000D01*
%TO.N,mirror_index_bottom*%
X274810000Y-86000000D02*
X272650000Y-86000000D01*
%TO.N,mirror_index_home*%
X272650000Y-67000000D02*
X274810000Y-67000000D01*
%TO.N,mirror_index_top*%
X272650000Y-48000000D02*
X274810000Y-48000000D01*
%TO.N,mirror_inner_bottom*%
X253650000Y-86000000D02*
X255810000Y-86000000D01*
%TO.N,mirror_inner_home*%
X255810000Y-67000000D02*
X253650000Y-67000000D01*
%TO.N,mirror_inner_top*%
X253650000Y-48000000D02*
X255810000Y-48000000D01*
%TO.N,mirror_tucky_cluster*%
X253650000Y-105000000D02*
X255810000Y-105000000D01*
%TO.N,mirror_reachy_cluster*%
X236810000Y-105000000D02*
X234650000Y-105000000D01*
%TO.N,GND*%
X206380000Y-53970000D02*
X219080000Y-53970000D01*
X219080000Y-53970000D02*
X221620000Y-56510000D01*
X221620000Y-56510000D02*
X221620000Y-59050000D01*
%TD*%
M02*
